<?xml version="1.0" encoding="utf-8"?>
<!-- Generator: Adobe Illustrator 22.1.0, SVG Export Plug-In . SVG Version: 6.00 Build 0)  -->
<svg version="1.1" id="Layer_1" xmlns="http://www.w3.org/2000/svg" xmlns:xlink="http://www.w3.org/1999/xlink" x="0px" y="0px"
	 viewBox="0 0 184.1 190.2" style="enable-background:new 0 0 184.1 190.2;" xml:space="preserve">
<style type="text/css">
	.st0{fill:#F3FFA1;}
	.st1{fill:#141433;}
</style>
<title>gear</title>
<g>
	<circle class="st0" cx="84.5" cy="105.8" r="84.5"/>
	<path class="st1" d="M112.8,154.5c-12.8,0-17.2-3-21.6-15c-3.2-8.3-11.7-13.4-20.6-12.3c-16.3,2.2-29-8.5-28.8-24.1
		c0.1-5.9,3.5-9.9,6.8-14c5.1-6.3,5.4-17.4,0-23.3C36.7,53,41.8,42.5,52,30.8c3.6-4.1,9.1-5,14.4-3.7c6.7,1.6,12.9,1.2,18.2-3.5
		c2.3-2.1,5.1-4.5,6-7.3C96-0.5,105.6-1.5,121.9,1c6.4,1,10.5,6.2,11.8,12.3c1.8,8.3,8.3,11.1,14.6,14.3c1.2,0.6,2.9,0.3,4.3,0.2
		c3.6-0.3,7.3-0.9,10.9-1.2c1.3,0,2.7,0.2,3.9,0.7c13,3.3,20.3,24,12.4,34.7c-3,4-6.7,7.3-6.6,13.4c0.1,6.4,1.5,11.4,5.7,16.3
		c6.5,7.6,6.6,13.9,1.6,22.5c-3,5.2-5.5,11.3-12,12.6c-4.7,1-9.9,0.6-14.8,0.1c-6.8-0.6-16.3,5-19,11.4c-1.6,4.2-3.8,8.1-6.4,11.6
		C125.3,153.8,121.1,154.5,112.8,154.5z M162,116.5c5.2,0.9,6.2-4,8.4-7.3c2-3,3.4-6,0.6-9.6c-3-3.8-7.3-7.5-8-11.8
		c-1.6-10.5-3.5-21.7,6-30.3c4.3-3.9,4.2-8,1.1-12.8c-4.3-6.7-4.6-7-11.9-6.1c-4.2,0.5-9.2,1.8-12.7,0.3c-9.8-4.3-20-8.9-22.3-21.4
		c-1-5.5-5.1-6.1-9.9-6.1c-5,0-9.1,0.2-10.9,6.2c-1.3,4.2-2.8,9.3-6,11.7c-8.5,6.4-17.3,13.4-29.4,9.3c-5.9-2-8.6,1.7-11.3,6.3
		c-2.6,4.4-3.2,8,0.6,12.1c2.8,3,6.3,6.5,6.8,10.2c1.4,10.6,3.3,21.7-6.3,30.2c-4.2,3.8-4,7.7-1,12.4c4.3,6.9,4.7,7.2,11.8,6.3
		c4.2-0.5,9.2-1.9,12.7-0.4c9.9,4.4,20.3,8.9,22.7,21.6c0.5,2.1,1.8,3.9,3.6,5c6,3.2,13.5,0.9,16.7-5.2c0.2-0.4,0.4-0.9,0.6-1.4
		c2-5.5,4.1-10.4,9.8-13.8c8.6-5.2,17-9.1,27.1-5.8C161.1,116.4,161.5,116.4,162,116.5z"/>
	<path class="st1" d="M112.3,48.6c15.9-0.1,29.4,13,29.3,28.5c0,16-12.9,28.9-28.9,29c-15.1,0.1-28.4-13-28.6-28.3
		C84,62.2,97,48.7,112.3,48.6z M130.1,77.2c0-9.5-7.8-17.2-17.3-17.1s-17.2,7.8-17.1,17.3s7.8,17.2,17.3,17.1c0,0,0.1,0,0.1,0
		C122.6,94.4,130.2,86.7,130.1,77.2z"/>
</g>
</svg>
