<?xml version="1.0" encoding="utf-8"?>
<!-- Generator: Adobe Illustrator 22.1.0, SVG Export Plug-In . SVG Version: 6.00 Build 0)  -->
<svg version="1.1" id="Layer_1" xmlns="http://www.w3.org/2000/svg" xmlns:xlink="http://www.w3.org/1999/xlink" x="0px" y="0px"
	 viewBox="0 0 199.8 199.7" style="enable-background:new 0 0 199.8 199.7;" xml:space="preserve">
<style type="text/css">
	.st0{fill:#9FFFE5;}
	.st1{fill:#141433;}
</style>
<g>
	<circle class="st0" cx="84.5" cy="115.2" r="84.5"/>
	<g>
		<path class="st1" d="M106.6,83.4c0-6.2,0.2-11.8-0.1-17.3c-0.1-1.1-1.6-2.6-2.8-3C81.2,56.3,72.9,27.7,88.3,9.8
			c7.3-8.4,17.1-10.3,27.7-9.7c13.3,0.7,23.9,8.3,27.3,19.6c4.6,15.4,0.4,31.2-10.8,38.8c-3.1,2.1-7.1,2.9-10.5,4.7
			c-1.1,0.6-2.5,2.1-2.6,3.2c-0.3,5.4-0.1,10.8-0.1,16.7c1.7,0.1,3.3,0.3,4.9,0.3c8.4,0,16.8-0.1,25.2,0c21,0.3,33.8,12.9,34.2,33.8
			c0.1,4.3,1.1,6.5,5.1,8.6c5.7,2.9,8.7,8.3,10.2,14.6c3.1,13.1-2,25.5-12.9,30.5c-11.8,5.4-27.7,1.5-33.8-8.4
			c-7.1-11.5-4.7-28.1,5.7-35.6c3.5-2.5,8-3.7,12.4-5.6c3.3-14.8-7.3-25.8-21-25c-9.3,0.5-18.6,0.1-27.8,0.1c-0.4,0-0.9,0.1-2,0.3
			c0,8.1-0.1,16.2,0.1,24.4c0,0.7,1.4,1.9,2.3,2.1c11.5,2.6,19.2,15.2,16.3,30.8c-2.2,12.1-12,19.4-25.5,19.1
			c-11.7-0.2-20.1-5.6-23.6-15.2c-4.1-11.3-1.2-24.1,7.2-30.7c2.9-2.2,6.5-3.6,10.4-5.7c0-3.5,0-7.8,0-12.1c0-4.2,0-8.3,0-13.1
			c-4.9,0-9.5,0-14.1,0c-5.4,0-10.8,0.3-16.2-0.1c-12.8-0.9-22.3,9.6-21.1,21.2c0.2,1.4,0,2.9,0,4.6c10.7,1.5,18.1,6.6,21.1,17
			c3.2,10.9,0.3,23-7.8,28.9c-9.4,6.9-19.8,6.7-30.1,2.1c-5.7-2.5-9.2-7.3-10.8-13.1c-3.2-11.4-1.2-27.1,12.5-32.9
			c1.1-0.5,1.7-2.8,2-4.4c1.1-5.7,0.7-11.9,3-17c6-13.3,17-19.4,31.6-19.2C86.6,83.5,96.3,83.4,106.6,83.4z M93.7,32
			c-0.1,12.4,6.3,19,18.8,19.4c12.5,0.3,19.4-6.4,19.6-19.1c0.2-12.5-6.2-19.3-18.1-19.4C100.2,12.7,93.9,18.7,93.7,32z M64.7,147.4
			c0-8.3-4.3-12.6-12.7-12.6c-8.6,0-12.8,4.2-12.8,13c0,8.6,4.3,12.6,13.1,12.6C60.6,160.2,64.8,155.9,64.7,147.4z M113,134.8
			c-9.1,0-12.6,3.9-12.6,13.9c0,7.4,4.3,11.5,12.3,11.5c8.7,0,12.9-4,12.9-12.3C125.6,138.9,121.7,134.8,113,134.8z M186.6,147.6
			c0-8.5-4-12.7-12.5-12.8c-8.6-0.1-13,4.2-13,12.7c0,8.4,4.2,12.8,12.5,12.8C182.4,160.3,186.6,156.2,186.6,147.6z"/>
	</g>
</g>
</svg>
