<?xml version="1.0" encoding="utf-8"?>
<!-- Generator: Adobe Illustrator 22.1.0, SVG Export Plug-In . SVG Version: 6.00 Build 0)  -->
<svg version="1.1" id="Ñëîé_1" xmlns="http://www.w3.org/2000/svg" xmlns:xlink="http://www.w3.org/1999/xlink" x="0px" y="0px"
	 viewBox="0 0 600 450" style="enable-background:new 0 0 600 450;" xml:space="preserve">
<style type="text/css">
	.st0{fill:url(#SVGID_1_);}
	.st1{fill:url(#SVGID_2_);}
	.st2{fill:url(#SVGID_3_);}
	.st3{opacity:0.6;fill:#020230;enable-background:new    ;}
	.st4{fill:url(#SVGID_4_);}
	.st5{fill:url(#SVGID_5_);}
	.st6{fill:url(#SVGID_6_);}
	.st7{fill:url(#SVGID_7_);}
	.st8{fill:#FFFFFF;}
	.st9{opacity:0.4;}
	.st10{fill:#06033E;}
	.st11{fill:url(#SVGID_8_);}
	.st12{fill:url(#SVGID_9_);}
	.st13{opacity:0.4;fill:#06033E;enable-background:new    ;}
	.st14{opacity:0.5;fill:#06033E;enable-background:new    ;}
	.st15{fill:url(#SVGID_10_);}
	.st16{opacity:0.5;}
	.st17{fill:#5BE86E;}
	.st18{fill:#F84040;}
	.st19{fill:url(#SVGID_11_);}
	.st20{fill:url(#SVGID_12_);}
	.st21{fill:url(#SVGID_13_);}
	.st22{fill:url(#SVGID_14_);}
	.st23{fill:url(#SVGID_15_);}
	.st24{fill:url(#SVGID_16_);}
	.st25{fill:url(#SVGID_17_);}
	.st26{fill:#0C0A78;}
	.st27{fill:url(#SVGID_18_);}
	.st28{opacity:0.5;fill:#FFFFFF;enable-background:new    ;}
</style>
<linearGradient id="SVGID_1_" gradientUnits="userSpaceOnUse" x1="-116.941" y1="1054.9" x2="-84.341" y2="1054.9" gradientTransform="matrix(-1 0 0 1 -9.1 -748)">
	<stop  offset="0" style="stop-color:#68E3A8"/>
	<stop  offset="1" style="stop-color:#00A375"/>
</linearGradient>
<path class="st0" d="M88,315.6l-11.7-6.8c-0.7-0.4-1.1-1.1-1.1-1.9s0.4-1.5,1.1-1.9l11.7-6.8c2.2-1.2,4.9-1.2,7,0l11.7,6.8
	c0.7,0.4,1.1,1.1,1.1,1.9s-0.4,1.5-1.1,1.9L95,315.6c-1.1,0.6-2.3,0.9-3.5,0.9S89.1,316.2,88,315.6z M89,299.9l-11.7,6.8
	c-0.2,0.1-0.2,0.2-0.2,0.3c0,0.1,0.1,0.2,0.2,0.3l11.7,6.8c1.6,0.9,3.5,0.9,5.1,0l0,0l11.7-6.8c0.2-0.1,0.2-0.2,0.2-0.3
	c0-0.1-0.1-0.2-0.2-0.3l-11.7-6.8c-0.8-0.5-1.7-0.7-2.6-0.7C90.7,299.2,89.8,299.4,89,299.9z"/>
<linearGradient id="SVGID_2_" gradientUnits="userSpaceOnUse" x1="-161.6" y1="1010.2" x2="-106.8216" y2="1010.2" gradientTransform="matrix(-1 0 0 1 -9.1 -748)">
	<stop  offset="0" style="stop-color:#68E3A8"/>
	<stop  offset="1" style="stop-color:#00A375"/>
</linearGradient>
<path class="st1" d="M119.5,276.6l-20.2-11.7c-0.9-0.6-1.5-1.6-1.5-2.7c0-1.2,0.5-2.1,1.5-2.7l20.2-11.7c3.5-2,7.8-2,11.3,0
	l20.2,11.7c0.9,0.6,1.5,1.6,1.5,2.7c0,1.2-0.5,2.1-1.5,2.7l-20.2,11.7c-1.8,1-3.7,1.5-5.7,1.5S121.2,277.5,119.5,276.6z M150,263.2
	c0.5-0.3,0.6-0.8,0.6-1s-0.1-0.7-0.6-1l-20.2-11.7c-3-1.7-6.6-1.7-9.5,0l-20.2,11.7c-0.5,0.3-0.6,0.8-0.6,1s0.1,0.7,0.6,1l20.2,11.7
	c3,1.7,6.6,1.7,9.5,0L150,263.2z"/>
<linearGradient id="SVGID_3_" gradientUnits="userSpaceOnUse" x1="-522.8" y1="1028.5" x2="-468.0217" y2="1028.5" gradientTransform="matrix(-1 0 0 1 -9.1 -748)">
	<stop  offset="0" style="stop-color:#68E3A8"/>
	<stop  offset="1" style="stop-color:#00A375"/>
</linearGradient>
<path class="st2" d="M480.7,294.9l-20.2-11.7c-0.9-0.6-1.5-1.6-1.5-2.7c0-1.2,0.5-2.1,1.5-2.7l20.2-11.7c3.5-2,7.8-2,11.3,0
	l20.2,11.7c0.9,0.6,1.5,1.6,1.5,2.7c0,1.2-0.5,2.1-1.5,2.7L492,294.9c-1.8,1-3.7,1.5-5.7,1.5C484.4,296.4,482.4,295.9,480.7,294.9z
	 M481.5,267.9l-20.2,11.7c-0.5,0.3-0.6,0.8-0.6,1s0.1,0.7,0.6,1l20.2,11.7c3,1.7,6.6,1.7,9.5,0l0,0l20.2-11.7c0.5-0.3,0.6-0.8,0.6-1
	s-0.1-0.7-0.6-1L491,267.9c-1.4-0.9-3.1-1.3-4.7-1.3C484.7,266.6,483.1,267,481.5,267.9z"/>
<g>
	<path class="st3" d="M273.6,347l-92.7-53.5c-2.4-1.4-2.7-3.5-0.6-4.7l144.4-83.4c2.1-1.3,5.8-1.1,8.2,0.3l92.7,53.5
		c2.4,1.4,2.7,3.5,0.6,4.7l-144.4,83.4C279.7,348.5,276,348.3,273.6,347z"/>
	
		<linearGradient id="SVGID_4_" gradientUnits="userSpaceOnUse" x1="-459.1" y1="1025.0076" x2="-166.7" y2="1025.0076" gradientTransform="matrix(-1 0 0 1 -9.1 -748)">
		<stop  offset="0" style="stop-color:#68E3A8"/>
		<stop  offset="1" style="stop-color:#00A375"/>
	</linearGradient>
	<path class="st4" d="M272.8,360.9l-112.4-65.8c-1.8-1-2.8-2.5-2.8-3.9c0-1.3,0.8-2.4,2.1-3.2l164.8-95.2c2.7-1.6,7.2-1.4,10.3,0.4
		L447.2,259c1.8,1,2.8,2.5,2.8,3.9c0,1.3-0.8,2.4-2.1,3.2L283,361.2l0,0c-1.2,0.7-2.8,1.1-4.5,1.1
		C276.5,362.3,274.4,361.8,272.8,360.9z M325.5,194.5l-164.8,95.2c-0.6,0.3-1.2,0.8-1.2,1.5c0,0.8,0.6,1.6,1.8,2.3l112.4,65.8
		c2.4,1.4,6.3,1.6,8.4,0.4l0,0l164.8-95.2c0.6-0.3,1.2-0.8,1.2-1.5c0-0.8-0.6-1.6-1.8-2.3l-112.4-65.8c-1.4-0.8-3.2-1.2-4.9-1.2
		C327.7,193.7,326.4,193.9,325.5,194.5z"/>
	
		<radialGradient id="SVGID_5_" cx="-297.5541" cy="808.6072" r="223.2961" gradientTransform="matrix(-1 0 0 1 -9.1 -748)" gradientUnits="userSpaceOnUse">
		<stop  offset="0" style="stop-color:#68E3A8"/>
		<stop  offset="0.4742" style="stop-color:#2F58FB"/>
		<stop  offset="0.5884" style="stop-color:#2A4FDE"/>
		<stop  offset="0.7421" style="stop-color:#2543BA"/>
		<stop  offset="0.8016" style="stop-color:#0D0C6F"/>
	</radialGradient>
	<path class="st5" d="M139.3,156l32.6,105.6c0.4,1.4,1.3,2.3,2.3,2.7l0,0l2.5,0.9l-0.4-0.8c0.4-0.1,0.8-0.2,1.1-0.4l143.9-83.1
		c2.2-1.3,3.4-4.5,2.6-7.1L291.4,68.1c-0.2-0.6-0.5-1.2-0.9-1.6l0.9-0.2l-2.7-0.9l0,0l0,0l0,0c-0.9-0.3-1.9-0.2-2.9,0.4l-143.9,83.1
		C139.6,150.2,138.5,153.4,139.3,156z"/>
	
		<radialGradient id="SVGID_6_" cx="-434.1268" cy="987.9302" r="244.1723" gradientTransform="matrix(-1 0 0 1 -9.1 -748)" gradientUnits="userSpaceOnUse">
		<stop  offset="0" style="stop-color:#68E3A8"/>
		<stop  offset="0.4742" style="stop-color:#2F58FB"/>
		<stop  offset="0.563" style="stop-color:#2A4FDE"/>
		<stop  offset="0.6825" style="stop-color:#2543BA"/>
		<stop  offset="0.7381" style="stop-color:#0D0C6F"/>
	</radialGradient>
	<path class="st6" d="M178.8,267l0.9,4.2l0,0c0.2,0.8,0.9,1.6,2,2.3l92,53.1c2.5,1.4,6.1,1.5,8.2,0.3L425.3,244
		c0.8-0.4,1.3-1.1,1.4-1.7l0,0l0.9-4.3l-3.1,1.2l-91.8-53c-2.5-1.4-6.1-1.5-8.2-0.3l-142,82l0,0L178.8,267z"/>
	
		<radialGradient id="SVGID_7_" cx="-411.6695" cy="938.9207" r="218.96" gradientTransform="matrix(-1 0 0 1 -9.1 -748)" gradientUnits="userSpaceOnUse">
		<stop  offset="0" style="stop-color:#68E3A8"/>
		<stop  offset="0.4742" style="stop-color:#2F58FB"/>
		<stop  offset="0.5816" style="stop-color:#2A4FDE"/>
		<stop  offset="0.7262" style="stop-color:#2543BA"/>
		<stop  offset="1" style="stop-color:#3919BB"/>
	</radialGradient>
	<path class="st7" d="M273.6,322.9l-92.7-53.5c-2.4-1.4-2.7-3.5-0.6-4.7l144.4-83.4c2.1-1.3,5.8-1.1,8.2,0.3l92.7,53.5
		c2.4,1.4,2.7,3.5,0.6,4.7l-144.4,83.4C279.7,324.4,276,324.2,273.6,322.9z"/>
	<path class="st8" d="M179,266.1c-0.3,1,0.3,2.3,1.9,3.2l92.7,53.5c2.4,1.4,6.1,1.5,8.2,0.3l144.4-83.4c1.2-0.7,1.6-1.6,1.3-2.6
		c-0.2,0.6-0.6,1.1-1.3,1.5L281.8,322c-2.1,1.3-5.8,1.1-8.2-0.3l-92.7-53.5C179.8,267.6,179.2,266.8,179,266.1z"/>
	<g class="st9">
		<path class="st10" d="M355.8,226.2l-5.8-3.3c-0.4-0.3-0.5-0.7-0.1-0.9l4.9-2.8c0.4-0.2,1-0.2,1.5,0.1l5.8,3.3
			c0.4,0.3,0.5,0.7,0.1,0.9l-4.9,2.8C356.9,226.5,356.2,226.4,355.8,226.2z"/>
		<path class="st10" d="M348.3,230.5l-5.8-3.3c-0.4-0.3-0.5-0.7-0.1-0.9l4.9-2.8c0.4-0.2,1-0.2,1.5,0.1l5.8,3.3
			c0.4,0.3,0.5,0.7,0.1,0.9l-4.9,2.8C349.4,230.8,348.7,230.8,348.3,230.5z"/>
		<path class="st10" d="M340.8,234.8l-5.8-3.3c-0.4-0.3-0.5-0.7-0.1-0.9l4.9-2.8c0.4-0.2,1-0.2,1.5,0.1l5.8,3.3
			c0.4,0.3,0.5,0.7,0.1,0.9l-4.9,2.8C341.9,235.2,341.2,235.1,340.8,234.8z"/>
		<path class="st10" d="M330.3,231.3l-4.8-2.8c-0.4-0.3-0.5-0.7-0.1-0.9l4.9-2.8c0.4-0.2,1-0.2,1.5,0.1l4.8,2.8
			c0.4,0.3,0.5,0.7,0.1,0.9l-4.9,2.8C331.5,231.6,330.8,231.6,330.3,231.3z"/>
		<path class="st10" d="M322.8,235.6l-4.8-2.8c-0.4-0.3-0.5-0.7-0.1-0.9l4.9-2.8c0.4-0.2,1-0.2,1.5,0.1l4.8,2.8
			c0.4,0.3,0.5,0.7,0.1,0.9l-4.9,2.8C323.9,235.9,323.2,235.9,322.8,235.6z"/>
		<path class="st10" d="M315.3,240l-4.8-2.8c-0.4-0.3-0.5-0.7-0.1-0.9l4.9-2.8c0.4-0.2,1-0.2,1.5,0.1l4.8,2.8
			c0.4,0.3,0.5,0.7,0.1,0.9l-4.9,2.8C316.4,240.3,315.7,240.2,315.3,240z"/>
		<path class="st10" d="M307.8,244.3l-4.8-2.8c-0.4-0.3-0.5-0.7-0.1-0.9l4.9-2.8c0.4-0.2,1-0.2,1.5,0.1l4.8,2.8
			c0.4,0.3,0.5,0.7,0.1,0.9l-4.9,2.8C308.9,244.6,308.2,244.6,307.8,244.3z"/>
		<path class="st10" d="M300.2,248.6l-4.8-2.8c-0.4-0.3-0.5-0.7-0.1-0.9l4.9-2.8c0.4-0.2,1-0.2,1.5,0.1l4.8,2.8
			c0.4,0.3,0.5,0.7,0.1,0.9l-4.9,2.8C301.3,249,300.6,248.9,300.2,248.6z"/>
		<path class="st10" d="M292.7,253l-4.8-2.8c-0.4-0.3-0.5-0.7-0.1-0.9l4.9-2.8c0.4-0.2,1-0.2,1.5,0.1l4.8,2.8
			c0.4,0.3,0.5,0.7,0.1,0.9l-4.9,2.8C293.8,253.3,293.1,253.3,292.7,253z"/>
		<path class="st10" d="M285.2,257.3l-4.8-2.8c-0.4-0.3-0.5-0.7-0.1-0.9l4.9-2.8c0.4-0.2,1-0.2,1.5,0.1l4.8,2.8
			c0.4,0.3,0.5,0.7,0.1,0.9l-4.9,2.8C286.3,257.7,285.6,257.6,285.2,257.3z"/>
		<path class="st10" d="M277.6,261.7l-4.8-2.8c-0.4-0.3-0.5-0.7-0.1-0.9l4.9-2.8c0.4-0.2,1-0.2,1.5,0.1l4.8,2.8
			c0.4,0.3,0.5,0.7,0.1,0.9l-4.9,2.8C278.7,262,278.1,262,277.6,261.7z"/>
		<path class="st10" d="M270.1,266l-4.8-2.8c-0.4-0.3-0.5-0.7-0.1-0.9l4.9-2.8c0.4-0.2,1-0.2,1.5,0.1l4.8,2.8
			c0.4,0.3,0.5,0.7,0.1,0.9l-4.9,2.8C271.2,266.4,270.5,266.3,270.1,266z"/>
		<path class="st10" d="M262.6,270.4l-4.8-2.8c-0.4-0.3-0.5-0.7-0.1-0.9l4.9-2.8c0.4-0.2,1-0.2,1.5,0.1l4.8,2.8
			c0.4,0.3,0.5,0.7,0.1,0.9l-4.9,2.8C263.7,270.7,263,270.7,262.6,270.4z"/>
		<path class="st10" d="M319.2,229.2l-4.8-2.8c-0.4-0.3-0.5-0.7-0.1-0.9l4.9-2.8c0.4-0.2,1-0.2,1.5,0.1l4.8,2.8
			c0.4,0.3,0.5,0.7,0.1,0.9l-4.9,2.8C320.4,229.5,319.7,229.5,319.2,229.2z"/>
		<path class="st10" d="M326.9,224.8l-4.8-2.8c-0.4-0.3-0.5-0.7-0.1-0.9l4.9-2.8c0.4-0.2,1-0.2,1.5,0.1l4.8,2.8
			c0.4,0.3,0.5,0.7,0.1,0.9l-4.9,2.8C328,225.1,327.3,225.1,326.9,224.8z"/>
		<path class="st10" d="M334.5,220.4l-4.8-2.8c-0.4-0.3-0.5-0.7-0.1-0.9l10.5-6.1c0.4-0.2,1-0.2,1.5,0.1l4.8,2.8
			c0.4,0.3,0.5,0.7,0.1,0.9l-10.5,6.1C335.7,220.7,335,220.7,334.5,220.4z"/>
		<path class="st10" d="M329.2,215l-4.8-2.8c-0.4-0.3-0.5-0.7-0.1-0.9l8.5-4.9c0.4-0.2,1-0.2,1.5,0.1l4.8,2.8
			c0.4,0.3,0.5,0.7,0.1,0.9l-8.5,4.9C330.3,215.3,329.6,215.3,329.2,215z"/>
		<path class="st10" d="M311.7,233.5l-4.8-2.8c-0.4-0.3-0.5-0.7-0.1-0.9l4.9-2.8c0.4-0.2,1-0.2,1.5,0.1l4.8,2.8
			c0.4,0.3,0.5,0.7,0.1,0.9l-4.9,2.8C312.8,233.9,312.1,233.8,311.7,233.5z"/>
		<path class="st10" d="M304.2,237.9l-4.8-2.8c-0.4-0.3-0.5-0.7-0.1-0.9l4.9-2.8c0.4-0.2,1-0.2,1.5,0.1l4.8,2.8
			c0.4,0.3,0.5,0.7,0.1,0.9l-4.9,2.8C305.3,238.2,304.6,238.2,304.2,237.9z"/>
		<path class="st10" d="M296.7,242.2l-4.8-2.8c-0.4-0.3-0.5-0.7-0.1-0.9l4.9-2.8c0.4-0.2,1-0.2,1.5,0.1l4.8,2.8
			c0.4,0.3,0.5,0.7,0.1,0.9l-4.9,2.8C297.8,242.6,297.1,242.5,296.7,242.2z"/>
		<path class="st10" d="M289.1,246.6l-4.8-2.8c-0.4-0.3-0.5-0.7-0.1-0.9l4.9-2.8c0.4-0.2,1-0.2,1.5,0.1l4.8,2.8
			c0.4,0.3,0.5,0.7,0.1,0.9l-4.9,2.8C290.2,246.9,289.6,246.9,289.1,246.6z"/>
		<path class="st10" d="M281.6,250.9l-4.8-2.8c-0.4-0.3-0.5-0.7-0.1-0.9l4.9-2.8c0.4-0.2,1-0.2,1.5,0.1l4.8,2.8
			c0.4,0.3,0.5,0.7,0.1,0.9l-4.9,2.8C282.7,251.3,282,251.2,281.6,250.9z"/>
		<path class="st10" d="M274.1,255.3l-4.8-2.8c-0.4-0.3-0.5-0.7-0.1-0.9l4.9-2.8c0.4-0.2,1-0.2,1.5,0.1l4.8,2.8
			c0.4,0.3,0.5,0.7,0.1,0.9l-4.9,2.8C275.2,255.6,274.5,255.6,274.1,255.3z"/>
		<path class="st10" d="M266.5,259.6l-4.8-2.8c-0.4-0.3-0.5-0.7-0.1-0.9l4.9-2.8c0.4-0.2,1-0.2,1.5,0.1l4.8,2.8
			c0.4,0.3,0.5,0.7,0.1,0.9l-4.9,2.8C267.6,260,267,259.9,266.5,259.6z"/>
		<path class="st10" d="M259,264l-4.8-2.8c-0.4-0.3-0.5-0.7-0.1-0.9l4.9-2.8c0.4-0.2,1-0.2,1.5,0.1l4.8,2.8c0.4,0.3,0.5,0.7,0.1,0.9
			l-4.9,2.8C260.1,264.3,259.4,264.3,259,264z"/>
		<path class="st10" d="M251.5,268.3l-4.8-2.8c-0.4-0.3-0.5-0.7-0.1-0.9l4.9-2.8c0.4-0.2,1-0.2,1.5,0.1l4.8,2.8
			c0.4,0.3,0.5,0.7,0.1,0.9l-4.9,2.8C252.6,268.7,251.9,268.6,251.5,268.3z"/>
		<path class="st10" d="M238.1,276.1l-4.8-2.8c-0.4-0.3-0.5-0.7-0.1-0.9l10.6-6.1c0.4-0.2,1-0.2,1.5,0.1l4.8,2.8
			c0.4,0.3,0.5,0.7,0.1,0.9l-10.6,6.1C239.2,276.4,238.5,276.4,238.1,276.1z"/>
		<path class="st10" d="M223.4,267.6l-4.8-2.8c-0.4-0.3-0.5-0.7-0.1-0.9l9-5.2c0.4-0.2,1-0.2,1.5,0.1l4.8,2.8
			c0.4,0.3,0.5,0.7,0.1,0.9l-9,5.2C224.5,267.9,223.9,267.9,223.4,267.6z"/>
		<path class="st10" d="M298.5,232.7l-4.8-2.8c-0.4-0.3-0.5-0.7-0.1-0.9l4.9-2.8c0.4-0.2,1-0.2,1.5,0.1l4.8,2.8
			c0.4,0.3,0.5,0.7,0.1,0.9l-4.9,2.8C299.6,233,299,233,298.5,232.7z"/>
		<path class="st10" d="M306.2,228.2l-4.8-2.8c-0.4-0.3-0.5-0.7-0.1-0.9l4.9-2.8c0.4-0.2,1-0.2,1.5,0.1l4.8,2.8
			c0.4,0.3,0.5,0.7,0.1,0.9l-4.9,2.8C307.4,228.6,306.7,228.5,306.2,228.2z"/>
		<path class="st10" d="M314,223.8l-4.8-2.8c-0.4-0.3-0.5-0.7-0.1-0.9l4.9-2.8c0.4-0.2,1-0.2,1.5,0.1l4.8,2.8
			c0.4,0.3,0.5,0.7,0.1,0.9l-4.9,2.8C315.1,224.1,314.4,224.1,314,223.8z"/>
		<path class="st10" d="M321.7,219.3l-4.8-2.8c-0.4-0.3-0.5-0.7-0.1-0.9l4.9-2.8c0.4-0.2,1-0.2,1.5,0.1l4.8,2.8
			c0.4,0.3,0.5,0.7,0.1,0.9l-4.9,2.8C322.8,219.7,322.1,219.6,321.7,219.3z"/>
		<path class="st10" d="M291,237l-4.8-2.8c-0.4-0.3-0.5-0.7-0.1-0.9l4.9-2.8c0.4-0.2,1-0.2,1.5,0.1l4.8,2.8c0.4,0.3,0.5,0.7,0.1,0.9
			l-4.9,2.8C292.1,237.4,291.4,237.3,291,237z"/>
		<path class="st10" d="M283.5,241.4l-4.8-2.8c-0.4-0.3-0.5-0.7-0.1-0.9l4.9-2.8c0.4-0.2,1-0.2,1.5,0.1l4.8,2.8
			c0.4,0.3,0.5,0.7,0.1,0.9l-4.9,2.8C284.6,241.7,283.9,241.7,283.5,241.4z"/>
		<path class="st10" d="M275.9,245.7l-4.8-2.8c-0.4-0.3-0.5-0.7-0.1-0.9l4.9-2.8c0.4-0.2,1-0.2,1.5,0.1l4.8,2.8
			c0.4,0.3,0.5,0.7,0.1,0.9l-4.9,2.8C277,246.1,276.4,246,275.9,245.7z"/>
		<path class="st10" d="M268.4,250.1l-4.8-2.8c-0.4-0.3-0.5-0.7-0.1-0.9l4.9-2.8c0.4-0.2,1-0.2,1.5,0.1l4.8,2.8
			c0.4,0.3,0.5,0.7,0.1,0.9l-4.9,2.8C269.5,250.4,268.8,250.4,268.4,250.1z"/>
		<path class="st10" d="M260.9,254.4l-4.8-2.8c-0.4-0.3-0.5-0.7-0.1-0.9l4.9-2.8c0.4-0.2,1-0.2,1.5,0.1l4.8,2.8
			c0.4,0.3,0.5,0.7,0.1,0.9l-4.9,2.8C262,254.8,261.3,254.7,260.9,254.4z"/>
		<path class="st10" d="M253.3,258.8l-4.8-2.8c-0.4-0.3-0.5-0.7-0.1-0.9l4.9-2.8c0.4-0.2,1-0.2,1.5,0.1l4.8,2.8
			c0.4,0.3,0.5,0.7,0.1,0.9l-4.9,2.8C254.5,259.1,253.8,259.1,253.3,258.8z"/>
		<path class="st10" d="M245.8,263.1l-4.8-2.8c-0.4-0.3-0.5-0.7-0.1-0.9l4.9-2.8c0.4-0.2,1-0.2,1.5,0.1l4.8,2.8
			c0.4,0.3,0.5,0.7,0.1,0.9l-4.9,2.8C246.9,263.5,246.2,263.4,245.8,263.1z"/>
		<path class="st10" d="M238.3,267.5l-4.8-2.8c-0.4-0.3-0.5-0.7-0.1-0.9l4.9-2.8c0.4-0.2,1-0.2,1.5,0.1l4.8,2.8
			c0.4,0.3,0.5,0.7,0.1,0.9l-4.9,2.8C239.4,267.8,238.7,267.8,238.3,267.5z"/>
		<path class="st10" d="M230.8,271.8L226,269c-0.4-0.3-0.5-0.7-0.1-0.9l4.9-2.8c0.4-0.2,1-0.2,1.5,0.1l4.8,2.8
			c0.4,0.3,0.5,0.7,0.1,0.9l-4.9,2.8C231.9,272.1,231.2,272.1,230.8,271.8z"/>
		<path class="st10" d="M302.5,221.9l-4.8-2.8c-0.4-0.3-0.5-0.7-0.1-0.9l4.9-2.8c0.4-0.2,1-0.2,1.5,0.1l4.8,2.8
			c0.4,0.3,0.5,0.7,0.1,0.9L304,222C303.6,222.3,302.9,222.2,302.5,221.9z"/>
		<path class="st10" d="M310,217.6l-4.8-2.8c-0.4-0.3-0.5-0.7-0.1-0.9l4.9-2.8c0.4-0.2,1-0.2,1.5,0.1l4.8,2.8
			c0.4,0.3,0.5,0.7,0.1,0.9l-4.9,2.8C311.1,217.9,310.4,217.9,310,217.6z"/>
		<path class="st10" d="M317.5,213.3l-4.8-2.8c-0.4-0.3-0.5-0.7-0.1-0.9l4.9-2.8c0.4-0.2,1-0.2,1.5,0.1l4.8,2.8
			c0.4,0.3,0.5,0.7,0.1,0.9l-4.9,2.8C318.6,213.6,317.9,213.6,317.5,213.3z"/>
		<path class="st10" d="M324.9,209l-4.7-2.8c-0.4-0.3-0.5-0.7-0.1-0.9l4.9-2.8c0.4-0.2,1-0.2,1.5,0.1l4.8,2.8
			c0.4,0.3,0.5,0.7,0.1,0.9l-4.9,2.8C326.1,209.3,325.4,209.3,324.9,209z"/>
		<path class="st10" d="M317.3,204.5l-1.6-0.9c-0.4-0.3-0.5-0.7-0.1-0.9l4.9-2.8c0.4-0.2,1-0.2,1.5,0.1l1.6,0.9
			c0.4,0.3,0.5,0.7,0.1,0.9l-4.9,2.8C318.4,204.8,317.7,204.8,317.3,204.5z"/>
		<path class="st10" d="M307.5,210.2l-1.6-0.9c-0.4-0.3-0.5-0.7-0.1-0.9l4.9-2.8c0.4-0.2,1-0.2,1.5,0.1l1.6,0.9
			c0.4,0.3,0.5,0.7,0.1,0.9l-4.9,2.8C308.6,210.5,307.9,210.5,307.5,210.2z"/>
		<path class="st10" d="M300,214.5l-1.6-0.9c-0.4-0.3-0.5-0.7-0.1-0.9l4.9-2.8c0.4-0.2,1-0.2,1.5,0.1l1.6,0.9
			c0.4,0.3,0.5,0.7,0.1,0.9l-4.9,2.8C301.1,214.8,300.5,214.8,300,214.5z"/>
		<path class="st10" d="M292.6,218.8l-1.6-0.9c-0.4-0.3-0.5-0.7-0.1-0.9l4.9-2.8c0.4-0.2,1-0.2,1.5,0.1l1.6,0.9
			c0.4,0.3,0.5,0.7,0.1,0.9l-4.9,2.8C293.7,219.1,293,219.1,292.6,218.8z"/>
		<path class="st10" d="M285.1,223.1l-1.6-0.9c-0.4-0.3-0.5-0.7-0.1-0.9l4.9-2.8c0.4-0.2,1-0.2,1.5,0.1l1.6,0.9
			c0.4,0.3,0.5,0.7,0.1,0.9l-4.9,2.8C286.2,223.4,285.5,223.4,285.1,223.1z"/>
		<path class="st10" d="M243.4,247.1l-1.6-0.9c-0.4-0.3-0.5-0.7-0.1-0.9l4.9-2.8c0.4-0.2,1-0.2,1.5,0.1l1.6,0.9
			c0.4,0.3,0.5,0.7,0.1,0.9l-4.9,2.8C244.6,247.5,243.9,247.4,243.4,247.1z"/>
		<path class="st10" d="M236,251.4l-1.6-0.9c-0.4-0.3-0.5-0.7-0.1-0.9l4.9-2.8c0.4-0.2,1-0.2,1.5,0.1l1.6,0.9
			c0.4,0.3,0.5,0.7,0.1,0.9l-4.9,2.8C237.1,251.8,236.4,251.7,236,251.4z"/>
		<path class="st10" d="M228.5,255.7l-1.6-0.9c-0.4-0.3-0.5-0.7-0.1-0.9l4.9-2.8c0.4-0.2,1-0.2,1.5,0.1l1.6,0.9
			c0.4,0.3,0.5,0.7,0.1,0.9l-4.9,2.9C229.6,256.1,229,256,228.5,255.7z"/>
		<path class="st10" d="M221.1,260.1l-1.6-0.9c-0.4-0.3-0.5-0.7-0.1-0.9l4.9-2.8c0.4-0.2,1-0.2,1.5,0.1l1.6,0.9
			c0.4,0.3,0.5,0.7,0.1,0.9l-4.9,2.8C222.2,260.4,221.5,260.4,221.1,260.1z"/>
		<path class="st10" d="M295,226.3l-4.8-2.8c-0.4-0.3-0.5-0.7-0.1-0.9l4.9-2.8c0.4-0.2,1-0.2,1.5,0.1l4.8,2.8
			c0.4,0.3,0.5,0.7,0.1,0.9l-4.9,2.8C296.1,226.6,295.4,226.6,295,226.3z"/>
		<path class="st10" d="M287.4,230.6l-4.8-2.8c-0.4-0.3-0.5-0.7-0.1-0.9l4.9-2.8c0.4-0.2,1-0.2,1.5,0.1l4.8,2.8
			c0.4,0.3,0.5,0.7,0.1,0.9l-4.9,2.8C288.5,231,287.9,230.9,287.4,230.6z"/>
		<path class="st10" d="M279.9,235l-4.8-2.8c-0.4-0.3-0.5-0.7-0.1-0.9l4.9-2.8c0.4-0.2,1-0.2,1.5,0.1l4.8,2.8
			c0.4,0.3,0.5,0.7,0.1,0.9l-4.9,2.8C281,235.3,280.3,235.3,279.9,235z"/>
		<path class="st10" d="M272.4,239.3l-4.8-2.8c-0.4-0.3-0.5-0.7-0.1-0.9l4.9-2.8c0.4-0.2,1-0.2,1.5,0.1l4.8,2.8
			c0.4,0.3,0.5,0.7,0.1,0.9l-4.9,2.8C273.5,239.7,272.8,239.6,272.4,239.3z"/>
		<path class="st10" d="M264.8,243.7l-4.8-2.8c-0.4-0.3-0.5-0.7-0.1-0.9l4.9-2.8c0.4-0.2,1-0.2,1.5,0.1l4.8,2.8
			c0.4,0.3,0.5,0.7,0.1,0.9l-4.9,2.8C266,244,265.3,244,264.8,243.7z"/>
		<path class="st10" d="M257.3,248l-4.8-2.8c-0.4-0.3-0.5-0.7-0.1-0.9l4.9-2.8c0.4-0.2,1-0.2,1.5,0.1l4.8,2.8
			c0.4,0.3,0.5,0.7,0.1,0.9l-4.9,2.8C258.4,248.4,257.7,248.3,257.3,248z"/>
		<path class="st10" d="M249.8,252.4l-4.8-2.8c-0.4-0.3-0.5-0.7-0.1-0.9l4.9-2.8c0.4-0.2,1-0.2,1.5,0.1l4.8,2.8
			c0.4,0.3,0.5,0.7,0.1,0.9l-4.9,2.8C250.9,252.7,250.2,252.7,249.8,252.4z"/>
		<path class="st10" d="M242.3,256.7l-4.8-2.8c-0.4-0.3-0.5-0.7-0.1-0.9l4.9-2.8c0.4-0.2,1-0.2,1.5,0.1l4.8,2.8
			c0.4,0.3,0.5,0.7,0.1,0.9l-4.9,2.8C243.4,257,242.7,257,242.3,256.7z"/>
		<path class="st10" d="M234.7,261.1l-4.8-2.8c-0.4-0.3-0.5-0.7-0.1-0.9l4.9-2.8c0.4-0.2,1-0.2,1.5,0.1l4.8,2.8
			c0.4,0.3,0.5,0.7,0.1,0.9l-4.9,2.8C235.8,261.4,235.1,261.4,234.7,261.1z"/>
		<path class="st10" d="M338,226.8l-4.8-2.8c-0.4-0.3-0.5-0.7-0.1-0.9l14.4-8.3c0.4-0.2,1-0.2,1.5,0.1l4.8,2.8
			c0.4,0.3,0.5,0.7,0.1,0.9l-14.4,8.3C339.1,227.2,338.4,227.1,338,226.8z"/>
		<path class="st10" d="M245.5,280.2l-4.8-2.8c-0.4-0.3-0.5-0.7-0.1-0.9l14.4-8.3c0.4-0.2,1-0.2,1.5,0.1l4.8,2.8
			c0.4,0.3,0.5,0.7,0.1,0.9l-14.4,8.3C246.6,280.6,245.9,280.5,245.5,280.2z"/>
		<path class="st10" d="M275.6,272.5l-5.8-3.3c-0.4-0.3-0.5-0.7-0.1-0.9l4.9-2.8c0.4-0.2,1-0.2,1.5,0.1l5.8,3.3
			c0.4,0.3,0.5,0.7,0.1,0.9l-4.9,2.8C276.7,272.8,276,272.8,275.6,272.5z"/>
		<path class="st10" d="M330.3,240.9l-5.8-3.3c-0.4-0.3-0.5-0.7-0.1-0.9l7.8-4.5c0.4-0.2,1-0.2,1.5,0.1l5.8,3.3
			c0.4,0.3,0.5,0.7,0.1,0.9l-7.8,4.5C331.4,241.2,330.7,241.2,330.3,240.9z"/>
		<path class="st10" d="M282.9,268.3l-5.8-3.3c-0.4-0.3-0.5-0.7-0.1-0.9l7.8-4.5c0.4-0.2,1-0.2,1.5,0.1l5.8,3.3
			c0.4,0.3,0.5,0.7,0.1,0.9l-7.8,4.5C284,268.6,283.3,268.6,282.9,268.3z"/>
		<path class="st10" d="M319.4,247.2l-5.8-3.3c-0.4-0.3-0.5-0.7-0.1-0.9l7.8-4.5c0.4-0.2,1-0.2,1.5,0.1l5.8,3.3
			c0.4,0.3,0.5,0.7,0.1,0.9l-7.8,4.5C320.5,247.5,319.9,247.5,319.4,247.2z"/>
		<path class="st10" d="M328.7,242.8l-33.9,19.6c-0.4,0.2-1.1,0.2-1.5,0l-5.9-3.4c-0.4-0.3-0.4-0.7,0-0.9l33.9-19.6L328.7,242.8z"/>
		<path class="st10" d="M257.4,280.5l2.4,1.4c0.4,0.2,0.4,0.5,0.1,0.7l-5.4,3.1c-0.4,0.1-0.9,0.1-1.3-0.1l-2.4-1.4
			c-0.4-0.2-0.4-0.5-0.1-0.7l5.4-3.1C256.4,280.3,257,280.3,257.4,280.5z"/>
		<path class="st10" d="M265,276.2l2.4,1.4c0.4,0.2,0.4,0.5,0.1,0.7l-5.4,3.1c-0.4,0.1-0.9,0.1-1.3-0.1l-2.4-1.4
			c-0.4-0.2-0.4-0.5-0.1-0.7l5.4-3.1C264,275.9,264.5,275.9,265,276.2z"/>
		<path class="st10" d="M272.5,271.8l2.4,1.4c0.4,0.2,0.4,0.5,0.1,0.7l-5.4,3.1c-0.4,0.1-0.9,0.1-1.3-0.1l-2.4-1.4
			c-0.4-0.2-0.4-0.5-0.1-0.7l5.4-3.1C271.5,271.5,272.1,271.5,272.5,271.8z"/>
		<path class="st10" d="M260.8,273.8l2.4,1.4c0.4,0.2,0.4,0.5,0.1,0.7l-5.4,3.1c-0.4,0.1-0.9,0.1-1.3-0.1l-2.4-1.4
			c-0.4-0.2-0.4-0.5-0.1-0.7l5.4-3.1C259.8,273.5,260.4,273.5,260.8,273.8z"/>
	</g>
	<g class="st9">
		<path class="st10" d="M355.8,226.2l-5.8-3.3c-0.4-0.3-0.5-0.7-0.1-0.9l4.9-2.8c0.4-0.2,1-0.2,1.5,0.1l5.8,3.3
			c0.4,0.3,0.5,0.7,0.1,0.9l-4.9,2.8C356.9,226.5,356.2,226.4,355.8,226.2z"/>
		<path class="st10" d="M348.3,230.5l-5.8-3.3c-0.4-0.3-0.5-0.7-0.1-0.9l4.9-2.8c0.4-0.2,1-0.2,1.5,0.1l5.8,3.3
			c0.4,0.3,0.5,0.7,0.1,0.9l-4.9,2.8C349.4,230.8,348.7,230.8,348.3,230.5z"/>
		<path class="st10" d="M340.8,234.8l-5.8-3.3c-0.4-0.3-0.5-0.7-0.1-0.9l4.9-2.8c0.4-0.2,1-0.2,1.5,0.1l5.8,3.3
			c0.4,0.3,0.5,0.7,0.1,0.9l-4.9,2.8C341.9,235.2,341.2,235.1,340.8,234.8z"/>
		<path class="st10" d="M330.3,231.3l-4.8-2.8c-0.4-0.3-0.5-0.7-0.1-0.9l4.9-2.8c0.4-0.2,1-0.2,1.5,0.1l4.8,2.8
			c0.4,0.3,0.5,0.7,0.1,0.9l-4.9,2.8C331.5,231.6,330.8,231.6,330.3,231.3z"/>
		<path class="st10" d="M322.8,235.6l-4.8-2.8c-0.4-0.3-0.5-0.7-0.1-0.9l4.9-2.8c0.4-0.2,1-0.2,1.5,0.1l4.8,2.8
			c0.4,0.3,0.5,0.7,0.1,0.9l-4.9,2.8C323.9,235.9,323.2,235.9,322.8,235.6z"/>
		<path class="st10" d="M315.3,240l-4.8-2.8c-0.4-0.3-0.5-0.7-0.1-0.9l4.9-2.8c0.4-0.2,1-0.2,1.5,0.1l4.8,2.8
			c0.4,0.3,0.5,0.7,0.1,0.9l-4.9,2.8C316.4,240.3,315.7,240.2,315.3,240z"/>
		<path class="st10" d="M307.8,244.3l-4.8-2.8c-0.4-0.3-0.5-0.7-0.1-0.9l4.9-2.8c0.4-0.2,1-0.2,1.5,0.1l4.8,2.8
			c0.4,0.3,0.5,0.7,0.1,0.9l-4.9,2.8C308.9,244.6,308.2,244.6,307.8,244.3z"/>
		<path class="st10" d="M300.2,248.6l-4.8-2.8c-0.4-0.3-0.5-0.7-0.1-0.9l4.9-2.8c0.4-0.2,1-0.2,1.5,0.1l4.8,2.8
			c0.4,0.3,0.5,0.7,0.1,0.9l-4.9,2.8C301.3,249,300.6,248.9,300.2,248.6z"/>
		<path class="st10" d="M292.7,253l-4.8-2.8c-0.4-0.3-0.5-0.7-0.1-0.9l4.9-2.8c0.4-0.2,1-0.2,1.5,0.1l4.8,2.8
			c0.4,0.3,0.5,0.7,0.1,0.9l-4.9,2.8C293.8,253.3,293.1,253.3,292.7,253z"/>
		<path class="st10" d="M285.2,257.3l-4.8-2.8c-0.4-0.3-0.5-0.7-0.1-0.9l4.9-2.8c0.4-0.2,1-0.2,1.5,0.1l4.8,2.8
			c0.4,0.3,0.5,0.7,0.1,0.9l-4.9,2.8C286.3,257.7,285.6,257.6,285.2,257.3z"/>
		<path class="st10" d="M277.6,261.7l-4.8-2.8c-0.4-0.3-0.5-0.7-0.1-0.9l4.9-2.8c0.4-0.2,1-0.2,1.5,0.1l4.8,2.8
			c0.4,0.3,0.5,0.7,0.1,0.9l-4.9,2.8C278.7,262,278.1,262,277.6,261.7z"/>
		<path class="st10" d="M270.1,266l-4.8-2.8c-0.4-0.3-0.5-0.7-0.1-0.9l4.9-2.8c0.4-0.2,1-0.2,1.5,0.1l4.8,2.8
			c0.4,0.3,0.5,0.7,0.1,0.9l-4.9,2.8C271.2,266.4,270.5,266.3,270.1,266z"/>
		<path class="st10" d="M262.6,270.4l-4.8-2.8c-0.4-0.3-0.5-0.7-0.1-0.9l4.9-2.8c0.4-0.2,1-0.2,1.5,0.1l4.8,2.8
			c0.4,0.3,0.5,0.7,0.1,0.9l-4.9,2.8C263.7,270.7,263,270.7,262.6,270.4z"/>
		<path class="st10" d="M319.2,229.2l-4.8-2.8c-0.4-0.3-0.5-0.7-0.1-0.9l4.9-2.8c0.4-0.2,1-0.2,1.5,0.1l4.8,2.8
			c0.4,0.3,0.5,0.7,0.1,0.9l-4.9,2.8C320.4,229.5,319.7,229.5,319.2,229.2z"/>
		<path class="st10" d="M326.9,224.8l-4.8-2.8c-0.4-0.3-0.5-0.7-0.1-0.9l4.9-2.8c0.4-0.2,1-0.2,1.5,0.1l4.8,2.8
			c0.4,0.3,0.5,0.7,0.1,0.9l-4.9,2.8C328,225.1,327.3,225.1,326.9,224.8z"/>
		<path class="st10" d="M334.5,220.4l-4.8-2.8c-0.4-0.3-0.5-0.7-0.1-0.9l10.5-6.1c0.4-0.2,1-0.2,1.5,0.1l4.8,2.8
			c0.4,0.3,0.5,0.7,0.1,0.9l-10.5,6.1C335.7,220.7,335,220.7,334.5,220.4z"/>
		<path class="st10" d="M329.2,215l-4.8-2.8c-0.4-0.3-0.5-0.7-0.1-0.9l8.5-4.9c0.4-0.2,1-0.2,1.5,0.1l4.8,2.8
			c0.4,0.3,0.5,0.7,0.1,0.9l-8.5,4.9C330.3,215.3,329.6,215.3,329.2,215z"/>
		<path class="st10" d="M311.7,233.5l-4.8-2.8c-0.4-0.3-0.5-0.7-0.1-0.9l4.9-2.8c0.4-0.2,1-0.2,1.5,0.1l4.8,2.8
			c0.4,0.3,0.5,0.7,0.1,0.9l-4.9,2.8C312.8,233.9,312.1,233.8,311.7,233.5z"/>
		<path class="st10" d="M304.2,237.9l-4.8-2.8c-0.4-0.3-0.5-0.7-0.1-0.9l4.9-2.8c0.4-0.2,1-0.2,1.5,0.1l4.8,2.8
			c0.4,0.3,0.5,0.7,0.1,0.9l-4.9,2.8C305.3,238.2,304.6,238.2,304.2,237.9z"/>
		<path class="st10" d="M296.7,242.2l-4.8-2.8c-0.4-0.3-0.5-0.7-0.1-0.9l4.9-2.8c0.4-0.2,1-0.2,1.5,0.1l4.8,2.8
			c0.4,0.3,0.5,0.7,0.1,0.9l-4.9,2.8C297.8,242.6,297.1,242.5,296.7,242.2z"/>
		<path class="st10" d="M289.1,246.6l-4.8-2.8c-0.4-0.3-0.5-0.7-0.1-0.9l4.9-2.8c0.4-0.2,1-0.2,1.5,0.1l4.8,2.8
			c0.4,0.3,0.5,0.7,0.1,0.9l-4.9,2.8C290.2,246.9,289.6,246.9,289.1,246.6z"/>
		<path class="st10" d="M281.6,250.9l-4.8-2.8c-0.4-0.3-0.5-0.7-0.1-0.9l4.9-2.8c0.4-0.2,1-0.2,1.5,0.1l4.8,2.8
			c0.4,0.3,0.5,0.7,0.1,0.9l-4.9,2.8C282.7,251.3,282,251.2,281.6,250.9z"/>
		<path class="st10" d="M274.1,255.3l-4.8-2.8c-0.4-0.3-0.5-0.7-0.1-0.9l4.9-2.8c0.4-0.2,1-0.2,1.5,0.1l4.8,2.8
			c0.4,0.3,0.5,0.7,0.1,0.9l-4.9,2.8C275.2,255.6,274.5,255.6,274.1,255.3z"/>
		<path class="st10" d="M266.5,259.6l-4.8-2.8c-0.4-0.3-0.5-0.7-0.1-0.9l4.9-2.8c0.4-0.2,1-0.2,1.5,0.1l4.8,2.8
			c0.4,0.3,0.5,0.7,0.1,0.9l-4.9,2.8C267.6,260,267,259.9,266.5,259.6z"/>
		<path class="st10" d="M259,264l-4.8-2.8c-0.4-0.3-0.5-0.7-0.1-0.9l4.9-2.8c0.4-0.2,1-0.2,1.5,0.1l4.8,2.8c0.4,0.3,0.5,0.7,0.1,0.9
			l-4.9,2.8C260.1,264.3,259.4,264.3,259,264z"/>
		<path class="st10" d="M251.5,268.3l-4.8-2.8c-0.4-0.3-0.5-0.7-0.1-0.9l4.9-2.8c0.4-0.2,1-0.2,1.5,0.1l4.8,2.8
			c0.4,0.3,0.5,0.7,0.1,0.9l-4.9,2.8C252.6,268.7,251.9,268.6,251.5,268.3z"/>
		<path class="st10" d="M238.1,276.1l-4.8-2.8c-0.4-0.3-0.5-0.7-0.1-0.9l10.6-6.1c0.4-0.2,1-0.2,1.5,0.1l4.8,2.8
			c0.4,0.3,0.5,0.7,0.1,0.9l-10.6,6.1C239.2,276.4,238.5,276.4,238.1,276.1z"/>
		<path class="st10" d="M223.4,267.6l-4.8-2.8c-0.4-0.3-0.5-0.7-0.1-0.9l9-5.2c0.4-0.2,1-0.2,1.5,0.1l4.8,2.8
			c0.4,0.3,0.5,0.7,0.1,0.9l-9,5.2C224.5,267.9,223.9,267.9,223.4,267.6z"/>
		<path class="st10" d="M298.5,232.7l-4.8-2.8c-0.4-0.3-0.5-0.7-0.1-0.9l4.9-2.8c0.4-0.2,1-0.2,1.5,0.1l4.8,2.8
			c0.4,0.3,0.5,0.7,0.1,0.9l-4.9,2.8C299.6,233,299,233,298.5,232.7z"/>
		<path class="st10" d="M306.2,228.2l-4.8-2.8c-0.4-0.3-0.5-0.7-0.1-0.9l4.9-2.8c0.4-0.2,1-0.2,1.5,0.1l4.8,2.8
			c0.4,0.3,0.5,0.7,0.1,0.9l-4.9,2.8C307.4,228.6,306.7,228.5,306.2,228.2z"/>
		<path class="st10" d="M314,223.8l-4.8-2.8c-0.4-0.3-0.5-0.7-0.1-0.9l4.9-2.8c0.4-0.2,1-0.2,1.5,0.1l4.8,2.8
			c0.4,0.3,0.5,0.7,0.1,0.9l-4.9,2.8C315.1,224.1,314.4,224.1,314,223.8z"/>
		<path class="st10" d="M321.7,219.3l-4.8-2.8c-0.4-0.3-0.5-0.7-0.1-0.9l4.9-2.8c0.4-0.2,1-0.2,1.5,0.1l4.8,2.8
			c0.4,0.3,0.5,0.7,0.1,0.9l-4.9,2.8C322.8,219.7,322.1,219.6,321.7,219.3z"/>
		<path class="st10" d="M291,237l-4.8-2.8c-0.4-0.3-0.5-0.7-0.1-0.9l4.9-2.8c0.4-0.2,1-0.2,1.5,0.1l4.8,2.8c0.4,0.3,0.5,0.7,0.1,0.9
			l-4.9,2.8C292.1,237.4,291.4,237.3,291,237z"/>
		<path class="st10" d="M283.5,241.4l-4.8-2.8c-0.4-0.3-0.5-0.7-0.1-0.9l4.9-2.8c0.4-0.2,1-0.2,1.5,0.1l4.8,2.8
			c0.4,0.3,0.5,0.7,0.1,0.9l-4.9,2.8C284.6,241.7,283.9,241.7,283.5,241.4z"/>
		<path class="st10" d="M275.9,245.7l-4.8-2.8c-0.4-0.3-0.5-0.7-0.1-0.9l4.9-2.8c0.4-0.2,1-0.2,1.5,0.1l4.8,2.8
			c0.4,0.3,0.5,0.7,0.1,0.9l-4.9,2.8C277,246.1,276.4,246,275.9,245.7z"/>
		<path class="st10" d="M268.4,250.1l-4.8-2.8c-0.4-0.3-0.5-0.7-0.1-0.9l4.9-2.8c0.4-0.2,1-0.2,1.5,0.1l4.8,2.8
			c0.4,0.3,0.5,0.7,0.1,0.9l-4.9,2.8C269.5,250.4,268.8,250.4,268.4,250.1z"/>
		<path class="st10" d="M260.9,254.4l-4.8-2.8c-0.4-0.3-0.5-0.7-0.1-0.9l4.9-2.8c0.4-0.2,1-0.2,1.5,0.1l4.8,2.8
			c0.4,0.3,0.5,0.7,0.1,0.9l-4.9,2.8C262,254.8,261.3,254.7,260.9,254.4z"/>
		<path class="st10" d="M253.3,258.8l-4.8-2.8c-0.4-0.3-0.5-0.7-0.1-0.9l4.9-2.8c0.4-0.2,1-0.2,1.5,0.1l4.8,2.8
			c0.4,0.3,0.5,0.7,0.1,0.9l-4.9,2.8C254.5,259.1,253.8,259.1,253.3,258.8z"/>
		<path class="st10" d="M245.8,263.1l-4.8-2.8c-0.4-0.3-0.5-0.7-0.1-0.9l4.9-2.8c0.4-0.2,1-0.2,1.5,0.1l4.8,2.8
			c0.4,0.3,0.5,0.7,0.1,0.9l-4.9,2.8C246.9,263.5,246.2,263.4,245.8,263.1z"/>
		<path class="st10" d="M238.3,267.5l-4.8-2.8c-0.4-0.3-0.5-0.7-0.1-0.9l4.9-2.8c0.4-0.2,1-0.2,1.5,0.1l4.8,2.8
			c0.4,0.3,0.5,0.7,0.1,0.9l-4.9,2.8C239.4,267.8,238.7,267.8,238.3,267.5z"/>
		<path class="st10" d="M230.8,271.8L226,269c-0.4-0.3-0.5-0.7-0.1-0.9l4.9-2.8c0.4-0.2,1-0.2,1.5,0.1l4.8,2.8
			c0.4,0.3,0.5,0.7,0.1,0.9l-4.9,2.8C231.9,272.1,231.2,272.1,230.8,271.8z"/>
		<path class="st10" d="M302.5,221.9l-4.8-2.8c-0.4-0.3-0.5-0.7-0.1-0.9l4.9-2.8c0.4-0.2,1-0.2,1.5,0.1l4.8,2.8
			c0.4,0.3,0.5,0.7,0.1,0.9L304,222C303.6,222.3,302.9,222.2,302.5,221.9z"/>
		<path class="st10" d="M310,217.6l-4.8-2.8c-0.4-0.3-0.5-0.7-0.1-0.9l4.9-2.8c0.4-0.2,1-0.2,1.5,0.1l4.8,2.8
			c0.4,0.3,0.5,0.7,0.1,0.9l-4.9,2.8C311.1,217.9,310.4,217.9,310,217.6z"/>
		<path class="st10" d="M317.5,213.3l-4.8-2.8c-0.4-0.3-0.5-0.7-0.1-0.9l4.9-2.8c0.4-0.2,1-0.2,1.5,0.1l4.8,2.8
			c0.4,0.3,0.5,0.7,0.1,0.9l-4.9,2.8C318.6,213.6,317.9,213.6,317.5,213.3z"/>
		<path class="st10" d="M324.9,209l-4.7-2.8c-0.4-0.3-0.5-0.7-0.1-0.9l4.9-2.8c0.4-0.2,1-0.2,1.5,0.1l4.8,2.8
			c0.4,0.3,0.5,0.7,0.1,0.9l-4.9,2.8C326.1,209.3,325.4,209.3,324.9,209z"/>
		<path class="st10" d="M317.3,204.5l-1.6-0.9c-0.4-0.3-0.5-0.7-0.1-0.9l4.9-2.8c0.4-0.2,1-0.2,1.5,0.1l1.6,0.9
			c0.4,0.3,0.5,0.7,0.1,0.9l-4.9,2.8C318.4,204.8,317.7,204.8,317.3,204.5z"/>
		<path class="st10" d="M307.5,210.2l-1.6-0.9c-0.4-0.3-0.5-0.7-0.1-0.9l4.9-2.8c0.4-0.2,1-0.2,1.5,0.1l1.6,0.9
			c0.4,0.3,0.5,0.7,0.1,0.9l-4.9,2.8C308.6,210.5,307.9,210.5,307.5,210.2z"/>
		<path class="st10" d="M300,214.5l-1.6-0.9c-0.4-0.3-0.5-0.7-0.1-0.9l4.9-2.8c0.4-0.2,1-0.2,1.5,0.1l1.6,0.9
			c0.4,0.3,0.5,0.7,0.1,0.9l-4.9,2.8C301.1,214.8,300.5,214.8,300,214.5z"/>
		<path class="st10" d="M292.6,218.8l-1.6-0.9c-0.4-0.3-0.5-0.7-0.1-0.9l4.9-2.8c0.4-0.2,1-0.2,1.5,0.1l1.6,0.9
			c0.4,0.3,0.5,0.7,0.1,0.9l-4.9,2.8C293.7,219.1,293,219.1,292.6,218.8z"/>
		<path class="st10" d="M285.1,223.1l-1.6-0.9c-0.4-0.3-0.5-0.7-0.1-0.9l4.9-2.8c0.4-0.2,1-0.2,1.5,0.1l1.6,0.9
			c0.4,0.3,0.5,0.7,0.1,0.9l-4.9,2.8C286.2,223.4,285.5,223.4,285.1,223.1z"/>
		<path class="st10" d="M243.4,247.1l-1.6-0.9c-0.4-0.3-0.5-0.7-0.1-0.9l4.9-2.8c0.4-0.2,1-0.2,1.5,0.1l1.6,0.9
			c0.4,0.3,0.5,0.7,0.1,0.9l-4.9,2.8C244.6,247.5,243.9,247.4,243.4,247.1z"/>
		<path class="st10" d="M236,251.4l-1.6-0.9c-0.4-0.3-0.5-0.7-0.1-0.9l4.9-2.8c0.4-0.2,1-0.2,1.5,0.1l1.6,0.9
			c0.4,0.3,0.5,0.7,0.1,0.9l-4.9,2.8C237.1,251.8,236.4,251.7,236,251.4z"/>
		<path class="st10" d="M228.5,255.7l-1.6-0.9c-0.4-0.3-0.5-0.7-0.1-0.9l4.9-2.8c0.4-0.2,1-0.2,1.5,0.1l1.6,0.9
			c0.4,0.3,0.5,0.7,0.1,0.9l-4.9,2.9C229.6,256.1,229,256,228.5,255.7z"/>
		<path class="st10" d="M221.1,260.1l-1.6-0.9c-0.4-0.3-0.5-0.7-0.1-0.9l4.9-2.8c0.4-0.2,1-0.2,1.5,0.1l1.6,0.9
			c0.4,0.3,0.5,0.7,0.1,0.9l-4.9,2.8C222.2,260.4,221.5,260.4,221.1,260.1z"/>
		<path class="st10" d="M295,226.3l-4.8-2.8c-0.4-0.3-0.5-0.7-0.1-0.9l4.9-2.8c0.4-0.2,1-0.2,1.5,0.1l4.8,2.8
			c0.4,0.3,0.5,0.7,0.1,0.9l-4.9,2.8C296.1,226.6,295.4,226.6,295,226.3z"/>
		<path class="st10" d="M287.4,230.6l-4.8-2.8c-0.4-0.3-0.5-0.7-0.1-0.9l4.9-2.8c0.4-0.2,1-0.2,1.5,0.1l4.8,2.8
			c0.4,0.3,0.5,0.7,0.1,0.9l-4.9,2.8C288.5,231,287.9,230.9,287.4,230.6z"/>
		<path class="st10" d="M279.9,235l-4.8-2.8c-0.4-0.3-0.5-0.7-0.1-0.9l4.9-2.8c0.4-0.2,1-0.2,1.5,0.1l4.8,2.8
			c0.4,0.3,0.5,0.7,0.1,0.9l-4.9,2.8C281,235.3,280.3,235.3,279.9,235z"/>
		<path class="st10" d="M272.4,239.3l-4.8-2.8c-0.4-0.3-0.5-0.7-0.1-0.9l4.9-2.8c0.4-0.2,1-0.2,1.5,0.1l4.8,2.8
			c0.4,0.3,0.5,0.7,0.1,0.9l-4.9,2.8C273.5,239.7,272.8,239.6,272.4,239.3z"/>
		<path class="st10" d="M264.8,243.7l-4.8-2.8c-0.4-0.3-0.5-0.7-0.1-0.9l4.9-2.8c0.4-0.2,1-0.2,1.5,0.1l4.8,2.8
			c0.4,0.3,0.5,0.7,0.1,0.9l-4.9,2.8C266,244,265.3,244,264.8,243.7z"/>
		<path class="st10" d="M257.3,248l-4.8-2.8c-0.4-0.3-0.5-0.7-0.1-0.9l4.9-2.8c0.4-0.2,1-0.2,1.5,0.1l4.8,2.8
			c0.4,0.3,0.5,0.7,0.1,0.9l-4.9,2.8C258.4,248.4,257.7,248.3,257.3,248z"/>
		<path class="st10" d="M249.8,252.4l-4.8-2.8c-0.4-0.3-0.5-0.7-0.1-0.9l4.9-2.8c0.4-0.2,1-0.2,1.5,0.1l4.8,2.8
			c0.4,0.3,0.5,0.7,0.1,0.9l-4.9,2.8C250.9,252.7,250.2,252.7,249.8,252.4z"/>
		<path class="st10" d="M242.3,256.7l-4.8-2.8c-0.4-0.3-0.5-0.7-0.1-0.9l4.9-2.8c0.4-0.2,1-0.2,1.5,0.1l4.8,2.8
			c0.4,0.3,0.5,0.7,0.1,0.9l-4.9,2.8C243.4,257,242.7,257,242.3,256.7z"/>
		<path class="st10" d="M234.7,261.1l-4.8-2.8c-0.4-0.3-0.5-0.7-0.1-0.9l4.9-2.8c0.4-0.2,1-0.2,1.5,0.1l4.8,2.8
			c0.4,0.3,0.5,0.7,0.1,0.9l-4.9,2.8C235.8,261.4,235.1,261.4,234.7,261.1z"/>
		<path class="st10" d="M338,226.8l-4.8-2.8c-0.4-0.3-0.5-0.7-0.1-0.9l14.4-8.3c0.4-0.2,1-0.2,1.5,0.1l4.8,2.8
			c0.4,0.3,0.5,0.7,0.1,0.9l-14.4,8.3C339.1,227.2,338.4,227.1,338,226.8z"/>
		<path class="st10" d="M245.5,280.2l-4.8-2.8c-0.4-0.3-0.5-0.7-0.1-0.9l14.4-8.3c0.4-0.2,1-0.2,1.5,0.1l4.8,2.8
			c0.4,0.3,0.5,0.7,0.1,0.9l-14.4,8.3C246.6,280.6,245.9,280.5,245.5,280.2z"/>
		<path class="st10" d="M275.6,272.5l-5.8-3.3c-0.4-0.3-0.5-0.7-0.1-0.9l4.9-2.8c0.4-0.2,1-0.2,1.5,0.1l5.8,3.3
			c0.4,0.3,0.5,0.7,0.1,0.9l-4.9,2.8C276.7,272.8,276,272.8,275.6,272.5z"/>
		<path class="st10" d="M330.3,240.9l-5.8-3.3c-0.4-0.3-0.5-0.7-0.1-0.9l7.8-4.5c0.4-0.2,1-0.2,1.5,0.1l5.8,3.3
			c0.4,0.3,0.5,0.7,0.1,0.9l-7.8,4.5C331.4,241.2,330.7,241.2,330.3,240.9z"/>
		<path class="st10" d="M282.9,268.3l-5.8-3.3c-0.4-0.3-0.5-0.7-0.1-0.9l7.8-4.5c0.4-0.2,1-0.2,1.5,0.1l5.8,3.3
			c0.4,0.3,0.5,0.7,0.1,0.9l-7.8,4.5C284,268.6,283.3,268.6,282.9,268.3z"/>
		<path class="st10" d="M319.4,247.2l-5.8-3.3c-0.4-0.3-0.5-0.7-0.1-0.9l7.8-4.5c0.4-0.2,1-0.2,1.5,0.1l5.8,3.3
			c0.4,0.3,0.5,0.7,0.1,0.9l-7.8,4.5C320.5,247.5,319.9,247.5,319.4,247.2z"/>
		<path class="st10" d="M328.7,242.8l-33.9,19.6c-0.4,0.2-1.1,0.2-1.5,0l-5.9-3.4c-0.4-0.3-0.4-0.7,0-0.9l33.9-19.6L328.7,242.8z"/>
		<path class="st10" d="M257.4,280.5l2.4,1.4c0.4,0.2,0.4,0.5,0.1,0.7l-5.4,3.1c-0.4,0.1-0.9,0.1-1.3-0.1l-2.4-1.4
			c-0.4-0.2-0.4-0.5-0.1-0.7l5.4-3.1C256.4,280.3,257,280.3,257.4,280.5z"/>
		<path class="st10" d="M265,276.2l2.4,1.4c0.4,0.2,0.4,0.5,0.1,0.7l-5.4,3.1c-0.4,0.1-0.9,0.1-1.3-0.1l-2.4-1.4
			c-0.4-0.2-0.4-0.5-0.1-0.7l5.4-3.1C264,275.9,264.5,275.9,265,276.2z"/>
		<path class="st10" d="M272.5,271.8l2.4,1.4c0.4,0.2,0.4,0.5,0.1,0.7l-5.4,3.1c-0.4,0.1-0.9,0.1-1.3-0.1l-2.4-1.4
			c-0.4-0.2-0.4-0.5-0.1-0.7l5.4-3.1C271.5,271.5,272.1,271.5,272.5,271.8z"/>
		<path class="st10" d="M260.8,273.8l2.4,1.4c0.4,0.2,0.4,0.5,0.1,0.7l-5.4,3.1c-0.4,0.1-0.9,0.1-1.3-0.1l-2.4-1.4
			c-0.4-0.2-0.4-0.5-0.1-0.7l5.4-3.1C259.8,273.5,260.4,273.5,260.8,273.8z"/>
	</g>
	
		<radialGradient id="SVGID_8_" cx="-357.1221" cy="855.1847" r="223.3409" gradientTransform="matrix(-1 0 0 1 -9.1 -748)" gradientUnits="userSpaceOnUse">
		<stop  offset="0" style="stop-color:#68E3A8"/>
		<stop  offset="0.4742" style="stop-color:#2F58FB"/>
		<stop  offset="0.5816" style="stop-color:#2A4FDE"/>
		<stop  offset="0.7262" style="stop-color:#2543BA"/>
		<stop  offset="1" style="stop-color:#3919BB"/>
	</radialGradient>
	<path class="st11" d="M174.2,262.5l-32.5-105.6c-0.8-2.6,0.3-5.8,2.6-7.1l143.9-83.1c2.3-1.3,4.8-0.2,5.6,2.4l32.5,105.6
		c0.8,2.6-0.3,5.8-2.6,7.1l-143.9,83.1C177.6,266.2,175.1,265.1,174.2,262.5z"/>
	
		<linearGradient id="SVGID_9_" gradientUnits="userSpaceOnUse" x1="-332.5606" y1="913.85" x2="-153.6393" y2="913.85" gradientTransform="matrix(-1 0 0 1 -9.1 -748)">
		<stop  offset="0" style="stop-color:#3919BB"/>
		<stop  offset="1" style="stop-color:#2543BA"/>
	</linearGradient>
	<path class="st12" d="M175.9,258.9l-31.1-101c-0.8-2.5,0.3-5.6,2.5-6.8l139.5-80.6c2.1-1.2,4.5-0.2,5.3,2.3l31.1,101
		c0.8,2.5-0.3,5.6-2.5,6.8l-139.5,80.6C179,262.4,176.6,261.4,175.9,258.9z"/>
	<path class="st13" d="M175.9,258.9l-31.1-101c-0.8-2.5,0.3-5.6,2.5-6.8l139.5-80.6c2.1-1.2,4.5-0.2,5.3,2.3l31.1,101
		c0.8,2.5-0.3,5.6-2.5,6.8l-139.5,80.6C179,262.4,176.6,261.4,175.9,258.9z"/>
	<path class="st13" d="M175.9,258.9l-31.1-101c-0.8-2.5,0.3-5.6,2.5-6.8l139.5-80.6c2.1-1.2,4.5-0.2,5.3,2.3l31.1,101
		c0.8,2.5-0.3,5.6-2.5,6.8l-139.5,80.6C179,262.4,176.6,261.4,175.9,258.9z"/>
	<path class="st14" d="M185.1,228.7l-21.4-69.4c-0.6-1.8,0.2-3.8,1.7-4.7l94.5-54.5c1.4-0.8,3.1-0.1,3.6,1.6l21.4,69.4
		c0.6,1.8-0.2,3.8-1.7,4.7l-94.5,54.5C187.2,231.2,185.5,230.5,185.1,228.7z"/>
	<g>
		
			<radialGradient id="SVGID_10_" cx="-438.6538" cy="807.4914" r="347.8475" gradientTransform="matrix(-1 0 0 1 -9.1 -748)" gradientUnits="userSpaceOnUse">
			<stop  offset="0" style="stop-color:#68E3A8"/>
			<stop  offset="0.4742" style="stop-color:#2F58FB"/>
			<stop  offset="0.5816" style="stop-color:#2A4FDE"/>
			<stop  offset="0.7262" style="stop-color:#2543BA"/>
			<stop  offset="1" style="stop-color:#3919BB"/>
		</radialGradient>
		<path class="st15" d="M197.8,230.3l-21.4-69.4c-0.6-1.8,0.2-3.8,1.7-4.7l94.5-54.5c1.4-0.8,3.1-0.1,3.6,1.6l21.4,69.4
			c0.6,1.8-0.2,3.8-1.7,4.7L201.4,232C199.9,232.8,198.3,232.1,197.8,230.3z"/>
	</g>
	<g class="st16">
		<path class="st10" d="M197.8,230.3l-21.4-69.4c-0.6-1.8,0.2-3.8,1.7-4.7l94.5-54.5c1.4-0.8,3.1-0.1,3.6,1.6l21.4,69.4
			c0.6,1.8-0.2,3.8-1.7,4.7L201.4,232C199.9,232.8,198.3,232.1,197.8,230.3z"/>
	</g>
	<path class="st8" d="M176.5,161.1l21.4,69.4c0.4,1.2,1.3,1.9,2.3,1.9c-0.5-0.4-0.8-0.9-1-1.5l-21.4-69.4c-0.6-1.8,0.2-3.8,1.7-4.7
		l94.5-54.5c0.5-0.2,1-0.3,1.4-0.3c-0.8-0.6-1.8-0.6-2.7-0.1l-94.5,54.5C176.7,157.2,175.9,159.3,176.5,161.1z"/>
	<path class="st13" d="M316.1,287.4l-19.5-11.2c-1.3-0.8-2.1-1.8-2.1-2.9c0-0.9,0.6-1.7,1.6-2.3l37.8-21.8c2.1-1.2,5.6-1.1,8,0.3
		l19.5,11.2c1.3,0.8,2.1,1.8,2.1,2.9c0,0.9-0.6,1.7-1.6,2.3l-37.8,21.9l0,0c-1,0.5-2.2,0.8-3.5,0.8
		C319,288.6,317.4,288.2,316.1,287.4z M334.4,250.2L296.6,272c-0.5,0.3-1,0.7-1,1.4c0,0.6,0.5,1.3,1.5,1.9l19.5,11.2
		c2,1.2,5.2,1.3,6.9,0.3l37.8-21.9c0.5-0.3,1-0.7,1-1.4c0-0.6-0.5-1.3-1.5-1.9l-19.5-11.2c-1.1-0.7-2.5-1-3.9-1
		C336.3,249.4,335.3,249.7,334.4,250.2z"/>
</g>
<g>
	<g>
		<path class="st8" d="M229.7,148L229.7,148c-0.2-0.6,0.1-1.4,0.6-1.7l5.8-3.4c0.5-0.4,1.1-0.1,1.3,0.5l0,0c0.2,0.6-0.1,1.4-0.6,1.7
			l-5.8,3.4C230.5,148.8,229.9,148.6,229.7,148z"/>
		<path class="st8" d="M215.8,156.1L215.8,156.1c-0.2-0.6,0.1-1.4,0.6-1.7l8.6-5c0.5-0.4,1.1-0.1,1.3,0.5l0,0
			c0.2,0.6-0.1,1.4-0.6,1.7l-8.6,5C216.6,156.9,216,156.6,215.8,156.1z"/>
		<path class="st8" d="M212,191.8L212,191.8c-0.2-0.6,0.1-1.4,0.6-1.7l5.8-3.4c0.5-0.4,1.1-0.1,1.3,0.5l0,0c0.2,0.6-0.1,1.4-0.6,1.7
			l-5.8,3.4C212.7,192.6,212.2,192.4,212,191.8z"/>
		<path class="st8" d="M199.6,199L199.6,199c-0.2-0.6,0.1-1.4,0.6-1.7l8.6-5c0.5-0.4,1.1-0.1,1.3,0.5l0,0c0.2,0.6-0.1,1.4-0.6,1.7
			l-8.6,5C200.3,199.8,199.8,199.6,199.6,199z"/>
		<path class="st8" d="M247.2,143.4L247.2,143.4c-0.2-0.6,0.1-1.4,0.6-1.7l3.6-2.1c0.5-0.4,1.1-0.1,1.3,0.5l0,0
			c0.2,0.6-0.1,1.4-0.6,1.7l-3.6,2.1C248,144.2,247.4,144,247.2,143.4z"/>
		<path class="st8" d="M193.6,180.5L193.6,180.5c-0.2-0.6,0.1-1.4,0.6-1.7l11.1-6.4c0.5-0.4,1.1-0.1,1.3,0.5l0,0
			c0.2,0.6-0.1,1.4-0.6,1.7l-11.1,6.4C194.4,181.3,193.8,181.1,193.6,180.5z"/>
		<path class="st8" d="M217.6,177.5L217.6,177.5c-0.2-0.6,0.1-1.4,0.6-1.7l3.6-2.1c0.5-0.4,1.1-0.1,1.3,0.5l0,0
			c0.2,0.6-0.1,1.4-0.6,1.7l-3.6,2.1C218.4,178.3,217.8,178.1,217.6,177.5z"/>
		<path class="st8" d="M211.2,203.1L211.2,203.1c-0.2-0.6,0.1-1.4,0.6-1.7l9.7-5.6c0.5-0.4,1.1-0.1,1.3,0.5l0,0
			c0.2,0.6-0.1,1.4-0.6,1.7l-9.7,5.6C212,203.9,211.4,203.7,211.2,203.1z"/>
		<path class="st8" d="M221.1,186.6L221.1,186.6c-0.2-0.6,0.1-1.4,0.6-1.7l2.3-1.4c0.5-0.4,1.1-0.1,1.3,0.5l0,0
			c0.2,0.6-0.1,1.4-0.6,1.7l-2.3,1.4C221.8,187.4,221.3,187.1,221.1,186.6z"/>
		<path class="st8" d="M236.3,188.6L236.3,188.6c-0.2-0.6,0.1-1.4,0.6-1.7l2.9-1.7c0.5-0.4,1.1-0.1,1.3,0.5l0,0
			c0.2,0.6-0.1,1.4-0.6,1.7l-2.9,1.7C237.1,189.4,236.5,189.2,236.3,188.6z"/>
		<path class="st8" d="M225,195.2L225,195.2c-0.2-0.6,0.1-1.4,0.6-1.7l7.7-4.4c0.5-0.4,1.1-0.1,1.3,0.5l0,0c0.2,0.6-0.1,1.4-0.6,1.7
			l-7.7,4.4C225.8,196,225.2,195.7,225,195.2z"/>
		<path class="st8" d="M204.2,212.8L204.2,212.8c-0.2-0.6,0.1-1.4,0.6-1.7l5.5-3.2c0.5-0.4,1.1-0.1,1.3,0.5l0,0
			c0.2,0.6-0.1,1.4-0.6,1.7l-5.5,3.2C205,213.6,204.4,213.4,204.2,212.8z"/>
		<path class="st8" d="M202.9,208L202.9,208c-0.2-0.6,0.1-1.4,0.6-1.7l3.5-2c0.5-0.4,1.1-0.1,1.3,0.5l0,0c0.2,0.6-0.1,1.4-0.6,1.7
			l-3.5,2C203.6,208.8,203,208.5,202.9,208z"/>
		<path class="st8" d="M204,185.3L204,185.3c-0.2-0.6,0.1-1.4,0.6-1.7l9.7-5.6c0.5-0.4,1.1-0.1,1.3,0.5l0,0c0.2,0.6-0.1,1.4-0.6,1.7
			l-9.7,5.6C204.8,186.2,204.2,185.9,204,185.3z"/>
	</g>
	<path class="st17" d="M195.1,185.1L195.1,185.1c-0.2-0.6,0.1-1.4,0.6-1.7l17-9.8c0.5-0.4,1.1-0.1,1.3,0.5l0,0
		c0.2,0.6-0.1,1.4-0.6,1.7l-17,9.8C195.8,186,195.2,185.7,195.1,185.1z"/>
	<path class="st17" d="M198.1,194.1L198.1,194.1c-0.2-0.6,0.1-1.4,0.6-1.7l9.7-5.6c0.5-0.4,1.1-0.1,1.3,0.5l0,0
		c0.2,0.6-0.1,1.4-0.6,1.7l-9.7,5.6C198.9,194.9,198.3,194.7,198.1,194.1z"/>
	<path class="st17" d="M196.6,189.6L196.6,189.6c-0.2-0.6,0.1-1.4,0.6-1.7l3.5-2c0.5-0.4,1.1-0.1,1.3,0.5l0,0
		c0.2,0.6-0.1,1.4-0.6,1.7l-3.5,2C197.4,190.4,196.8,190.2,196.6,189.6z"/>
	<path class="st17" d="M189.5,171.2L189.5,171.2c-0.2-0.6,0.1-1.4,0.6-1.7l21-12.1c0.5-0.4,1.1-0.1,1.3,0.5l0,0
		c0.2,0.6-0.1,1.4-0.6,1.7l-21,12.1C190.3,172,189.7,171.8,189.5,171.2z"/>
	<path class="st18" d="M201.1,203.4L201.1,203.4c-0.2-0.6,0.1-1.4,0.6-1.7l11.7-6.8c0.5-0.4,1.1-0.1,1.3,0.5l0,0
		c0.2,0.6-0.1,1.4-0.6,1.7l-11.7,6.8C201.9,204.2,201.3,203.9,201.1,203.4z"/>
	<path class="st18" d="M240.8,141.6L240.8,141.6c-0.2-0.6,0.1-1.4,0.6-1.7l8.6-5c0.5-0.4,1.1-0.1,1.3,0.5l0,0
		c0.2,0.6-0.1,1.4-0.6,1.7l-8.6,5C241.6,142.4,241,142.2,240.8,141.6z"/>
	<path class="st17" d="M206,217.2L206,217.2c-0.2-0.6,0.1-1.4,0.6-1.7l10-5.8c0.5-0.4,1.1-0.1,1.3,0.5l0,0c0.2,0.6-0.1,1.4-0.6,1.7
		l-10,5.8C206.8,218,206.2,217.8,206,217.2z"/>
</g>
<g>
	<path class="st8" d="M268.8,112.8L268.8,112.8c-0.1-0.4,0.1-1,0.5-1.2l4.3-2.5c0.4-0.2,0.9,0,1,0.4l0,0c0.1,0.4-0.1,1-0.5,1.2
		l-4.3,2.5C269.4,113.5,269,113.3,268.8,112.8z"/>
	<path class="st8" d="M260.6,117.5L260.6,117.5c-0.1-0.4,0.1-1,0.5-1.2l4.3-2.5c0.4-0.2,0.9,0,1,0.4l0,0c0.1,0.4-0.1,1-0.5,1.2
		l-4.3,2.5C261.2,118.2,260.8,118,260.6,117.5z"/>
	<path class="st8" d="M252.5,122.3L252.5,122.3c-0.1-0.4,0.1-1,0.5-1.2l4.3-2.5c0.4-0.2,0.9,0,1,0.4l0,0c0.1,0.4-0.1,1-0.5,1.2
		l-4.3,2.5C253.1,122.9,252.7,122.7,252.5,122.3z"/>
	<path class="st18" d="M248.5,124.6L248.5,124.6c-0.1-0.4,0.1-1,0.5-1.2l0.1-0.1c0.4-0.2,0.9,0,1,0.4l0,0c0.1,0.4-0.1,1-0.5,1.2
		l-0.1,0.1C249.1,125.2,248.7,125,248.5,124.6z"/>
</g>
<linearGradient id="SVGID_11_" gradientUnits="userSpaceOnUse" x1="-454.6" y1="938.3" x2="-377.8" y2="938.3" gradientTransform="matrix(-1 0 0 1 -9.1 -748)">
	<stop  offset="0" style="stop-color:#68E3A8"/>
	<stop  offset="1" style="stop-color:#00A375"/>
</linearGradient>
<path class="st19" d="M399.3,210.2l-28.6-16.5c-1.3-0.7-2-2-2-3.4s0.8-2.7,2-3.4l28.6-16.5c4.8-2.8,10.8-2.8,15.6,0l28.6,16.5
	c1.3,0.7,2,2,2,3.4s-0.8,2.7-2,3.4l-28.6,16.5l0,0c-2.4,1.4-5.1,2.1-7.8,2.1C404.4,212.3,401.7,211.6,399.3,210.2z M442.6,192.1
	c0.6-0.4,1-1,1-1.8c0-0.7-0.3-1.4-1-1.8L414,172c-4.3-2.5-9.6-2.5-13.8,0l-28.6,16.5c-0.6,0.4-1,1.1-1,1.8s0.3,1.4,1,1.8l28.6,16.5
	c4.3,2.5,9.6,2.5,13.8,0L442.6,192.1z"/>
<g>
	<ellipse class="st3" cx="407.2" cy="190.7" rx="19.6" ry="11.3"/>
	
		<radialGradient id="SVGID_12_" cx="-447.7838" cy="875.668" r="165.349" gradientTransform="matrix(-1 0 0 1 -9.1 -748)" gradientUnits="userSpaceOnUse">
		<stop  offset="0" style="stop-color:#68E3A8"/>
		<stop  offset="0.1528" style="stop-color:#2F58FB"/>
		<stop  offset="0.4087" style="stop-color:#3919BB"/>
		<stop  offset="0.9311" style="stop-color:#3919BB"/>
	</radialGradient>
	<path class="st20" d="M383.2,170.5c0,3.4,2.3,6.7,6.7,9.3c8.9,5.1,23.3,5.1,32.2,0c4.5-2.6,6.7-5.9,6.7-9.3l0,0l5.2-60.6h-55.9
		L383.2,170.5z"/>
	<path class="st13" d="M379,122L379,122l4.2,48.6c0,3.4,2.3,6.7,6.7,9.3c3.8,2.2,8.6,3.5,13.5,3.8c-6.7-1.5-10.2-4-12-6.1
		c-1.3-1.5-1.9-3.4-2-5.3l-1.9-44.3c12.1,5.1,29.7,3.7,40.4-3.4c2.2-1.5,3.9-3.1,5.2-4.7l0.9-10h-55.9L379,122z"/>
	<ellipse class="st13" cx="406.1" cy="109.9" rx="28" ry="16.1"/>
	<ellipse class="st13" cx="406.1" cy="104.2" rx="24.1" ry="13.9"/>
	
		<linearGradient id="SVGID_13_" gradientUnits="userSpaceOnUse" x1="-444.8574" y1="855.2875" x2="-385.548" y2="855.2875" gradientTransform="matrix(-1 0 0 1 -9.1 -748)">
		<stop  offset="0" style="stop-color:#68E3A8"/>
		<stop  offset="0.252" style="stop-color:#2F58FB"/>
		<stop  offset="0.5556" style="stop-color:#3919BB"/>
	</linearGradient>
	<path class="st21" d="M385,122.1c11.5,6.7,30.3,6.7,41.9,0c6.1-3.5,9-8.2,8.7-12.8l0,0v-0.1c0-0.1,0-0.3,0-0.4l-0.5-4.8l0,0
		c-0.1-4.2-2.9-8.4-8.5-11.6c-11.3-6.6-29.7-6.6-41.1,0c-5.4,3.1-8.3,7.2-8.5,11.3v-0.1l-0.5,5.4c0,0,0,0,0,0.1l0,0l0,0
		C376.1,113.7,379,118.4,385,122.1z"/>
	
		<linearGradient id="SVGID_14_" gradientUnits="userSpaceOnUse" x1="-439.3" y1="852.2" x2="-391.1" y2="852.2" gradientTransform="matrix(-1 0 0 1 -9.1 -748)">
		<stop  offset="0" style="stop-color:#4F1FEC"/>
		<stop  offset="1" style="stop-color:#2F58FB"/>
	</linearGradient>
	<ellipse class="st22" cx="406.1" cy="104.2" rx="24.1" ry="13.9"/>
	
		<linearGradient id="SVGID_15_" gradientUnits="userSpaceOnUse" x1="-440.4" y1="852.2" x2="-392.2" y2="852.2" gradientTransform="matrix(-1 0 0 1 -9.1 -748)">
		<stop  offset="0" style="stop-color:#4F1FEC"/>
		<stop  offset="1" style="stop-color:#2F58FB"/>
	</linearGradient>
	<ellipse class="st23" cx="407.2" cy="104.2" rx="24.1" ry="13.9"/>
	<path class="st13" d="M423.5,113.8c9.1-5.5,9-14.1-0.3-19.5c-9.4-5.4-24.7-5.4-34.1,0c-1.2,0.7-2.3,1.5-3.2,2.3
		c0.1-0.1,0.2-0.1,0.3-0.2c9.4-5.4,24.7-5.4,34.1,0C428.5,101.1,429.5,108.4,423.5,113.8z"/>
	
		<linearGradient id="SVGID_16_" gradientUnits="userSpaceOnUse" x1="-439.2902" y1="845.775" x2="-378.538" y2="845.775" gradientTransform="matrix(-1 0 0 1 -9.1 -748)">
		<stop  offset="0" style="stop-color:#131060"/>
		<stop  offset="0.1648" style="stop-color:#131260"/>
		<stop  offset="0.2506" style="stop-color:#131A62"/>
		<stop  offset="0.3181" style="stop-color:#122864"/>
		<stop  offset="0.3762" style="stop-color:#123B67"/>
		<stop  offset="0.4281" style="stop-color:#11536B"/>
		<stop  offset="0.4758" style="stop-color:#107270"/>
		<stop  offset="0.5201" style="stop-color:#109676"/>
		<stop  offset="0.5618" style="stop-color:#0EC07D"/>
		<stop  offset="0.5999" style="stop-color:#0DEE84"/>
		<stop  offset="0.6071" style="stop-color:#0DF886"/>
		<stop  offset="0.6394" style="stop-color:#19F682"/>
		<stop  offset="0.7313" style="stop-color:#36F079"/>
		<stop  offset="0.8227" style="stop-color:#4AEB73"/>
		<stop  offset="0.9128" style="stop-color:#57E96F"/>
		<stop  offset="1" style="stop-color:#5BE86E"/>
	</linearGradient>
	<path class="st24" d="M430.1,105.3c0.6-3.9-1.8-8-7-11c-9.4-5.4-24.7-5.4-34.1,0c-5.3,3-7.6,7-7,11c0.5-3.1,2.8-6.2,7-8.6
		c9.4-5.4,24.7-5.4,34.1,0C427.3,99.2,429.6,102.2,430.1,105.3z"/>
	
		<radialGradient id="SVGID_17_" cx="-452.2601" cy="838.4045" r="108.1645" gradientTransform="matrix(-1 0 0 1 -9.1 -748)" gradientUnits="userSpaceOnUse">
		<stop  offset="0" style="stop-color:#68E3A8"/>
		<stop  offset="0.252" style="stop-color:#2F58FB"/>
		<stop  offset="0.7357" style="stop-color:#3919BB"/>
	</radialGradient>
	<path class="st25" d="M385.6,116.2c11.5,6.4,30,6.3,41.3-0.4c11.3-6.6,11.3-17.3-0.2-23.8c-11.5-6.4-30-6.3-41.3,0.4
		C374,99.1,374.1,109.8,385.6,116.2z M389.1,94.3c9.4-5.4,24.7-5.4,34.1,0c9.4,5.5,9.4,14.3,0,19.7c-3.2,1.8-7,3-11,3.6l-0.4-1.4
		c-0.2-0.6-0.7-1-1.3-1h-8.7c-0.6,0-1.1,0.4-1.3,1l-0.4,1.4c-4.1-0.6-7.9-1.8-11-3.6C379.7,108.6,379.7,99.8,389.1,94.3z"/>
	<g>
		<path class="st8" d="M382.1,103.6c0.2-3.4,2.5-6.7,7-9.3c9.4-5.4,24.7-5.4,34.1,0c4.4,2.6,6.8,5.9,7,9.3c0.3-3.7-2.1-7.5-7-10.3
			c-9.4-5.4-24.7-5.4-34.1,0C384.1,96.2,381.8,99.9,382.1,103.6z"/>
		<path class="st8" d="M377,103.7c-0.3,4.6,2.6,9.1,8.6,12.5c11.5,6.4,30,6.3,41.3-0.4c5.8-3.4,8.6-8,8.4-12.4
			c-0.2,4.1-3,8.2-8.4,11.4c-11.4,6.7-29.8,6.9-41.3,0.4C380,112.1,377.1,108,377,103.7z"/>
	</g>
	<path class="st26" d="M402.8,117.7L402.8,117.7c0-0.5,0.3-0.8,0.7-0.8h5.2c0.4,0,0.7,0.3,0.7,0.7v0.1c0,0.4-0.3,0.7-0.7,0.7h-5.2
		C403.2,118.4,402.9,118.1,402.8,117.7z"/>
	
		<linearGradient id="SVGID_18_" gradientUnits="userSpaceOnUse" x1="-419.0173" y1="865.5" x2="-410.6127" y2="865.5" gradientTransform="matrix(-1 0 0 1 -9.1 -748)">
		<stop  offset="0" style="stop-color:#131060"/>
		<stop  offset="0.1648" style="stop-color:#131260"/>
		<stop  offset="0.2506" style="stop-color:#131A62"/>
		<stop  offset="0.3181" style="stop-color:#122864"/>
		<stop  offset="0.3762" style="stop-color:#123B67"/>
		<stop  offset="0.4281" style="stop-color:#11536B"/>
		<stop  offset="0.4758" style="stop-color:#107270"/>
		<stop  offset="0.5201" style="stop-color:#109676"/>
		<stop  offset="0.5618" style="stop-color:#0EC07D"/>
		<stop  offset="0.5999" style="stop-color:#0DEE84"/>
		<stop  offset="0.6071" style="stop-color:#0DF886"/>
		<stop  offset="0.6394" style="stop-color:#19F682"/>
		<stop  offset="0.7313" style="stop-color:#36F079"/>
		<stop  offset="0.8227" style="stop-color:#4AEB73"/>
		<stop  offset="0.9128" style="stop-color:#57E96F"/>
		<stop  offset="1" style="stop-color:#5BE86E"/>
	</linearGradient>
	<path class="st27" d="M403,117.7L403,117.7c0,0.2,0,0.2,0,0.3c0.1-0.3,0.3-0.5,0.6-0.5h5.2c0.3,0,0.5,0.2,0.6,0.5
		c0-0.1,0-0.1,0-0.2v-0.1c0-0.4-0.3-0.7-0.7-0.7h-5.2C403.2,117,402.9,117.3,403,117.7z"/>
	<path class="st17" d="M405.3,155.1c5,1.4,7.5,0.2,7.5,0.2s-0.2,9.1-3.4,12.9c10.2-3.8,10.3-17.8,10.2-20.5c-5,2.8-6.3,1.6-6.3,1.6
		s-2.3-8,0.1-12.1C409.9,140.2,405.3,150.5,405.3,155.1z"/>
</g>
<path class="st28" d="M407.7,117.7c0,0-7.2-3.3-7.3-12.2c-0.1-7.6,1.5-5.8,8.8-21.5c7.3-15.8-0.5-27.4-0.5-27.4
	c4.9,14.4-7.4,19.9-13.7,37.9c-6.3,18,9.3,23.2,9.3,23.2H407.7z"/>
<path class="st28" d="M400.4,67.2c2.9-9.8-6-29.7-6-29.7c10.1,10.8,8.5,21.6,8.5,21.6C402.8,61,400.4,67.3,400.4,67.2z"/>
</svg>
