<?xml version="1.0" encoding="utf-8"?>
<!-- Generator: Adobe Illustrator 22.1.0, SVG Export Plug-In . SVG Version: 6.00 Build 0)  -->
<svg version="1.1" id="Layer_1" xmlns="http://www.w3.org/2000/svg" xmlns:xlink="http://www.w3.org/1999/xlink" x="0px" y="0px"
	 viewBox="0 0 184.6 472.4" style="enable-background:new 0 0 184.6 472.4;" xml:space="preserve">
<style type="text/css">
	.st0{fill:#3355FF;}
	.st1{fill:#00CCAA;}
</style>
<g>
	<path class="st0" d="M49.9,447l-11.2-3.9l27-153.3H20.5l-5.3-8.9L136.3,61.1l11.2,3.9l-27,153.3h45.3l5.3,8.9L49.9,447z
		 M30.6,277.8h42.3l5.9,7l-22,124.7l98.7-179.2h-42.3l-5.9-7l22-124.7L30.6,277.8z"/>
</g>
<g>
	
		<rect x="48.6" y="414.8" transform="matrix(0.4824 -0.8759 0.8759 0.4824 -319.6261 294.6662)" class="st1" width="81.8" height="6"/>
</g>
<g>
	
		<rect x="81.5" y="420.4" transform="matrix(0.4824 -0.8759 0.8759 0.4824 -316.1653 311.7088)" class="st1" width="48.3" height="6"/>
</g>
<g>
	
		<rect x="-9.8" y="92.2" transform="matrix(0.4824 -0.8759 0.8759 0.4824 -43.7607 116.2958)" class="st1" width="172.6" height="6"/>
</g>
<g>
	<rect x="85.1" y="67.7" transform="matrix(0.4824 -0.8759 0.8759 0.4824 -5.3661 132.2811)" class="st1" width="48.3" height="6"/>
</g>
</svg>
