<?xml version="1.0" encoding="utf-8"?>
<!-- Generator: Adobe Illustrator 22.1.0, SVG Export Plug-In . SVG Version: 6.00 Build 0)  -->
<svg version="1.1" id="Layer_1" xmlns="http://www.w3.org/2000/svg" xmlns:xlink="http://www.w3.org/1999/xlink" x="0px" y="0px"
	 viewBox="0 0 209.2 209.5" style="enable-background:new 0 0 209.2 209.5;" xml:space="preserve">
<style type="text/css">
	.st0{fill:#E3B2FF;}
	.st1{fill:#141433;}
</style>
<g>
	<circle class="st0" cx="84.5" cy="125" r="84.5"/>
	<g>
		<path class="st1" d="M114.5,175.6c-17.3,0-34.6,0.2-51.9-0.1c-9.7-0.2-17.2-4.8-21.8-13.5c-5-9.6-2.5-19.7,6.8-26.3
			c15.6-11.1,33-17.8,52-20c25.1-2.8,49.1,0.7,71.5,12.9c3.6,2,7.3,4.1,10.6,6.5c14.5,10.3,13.1,29.4-2.9,37.2
			c-4.2,2-9.2,3.1-13.8,3.2C148.1,175.9,131.3,175.7,114.5,175.6C114.5,175.7,114.5,175.6,114.5,175.6z M115,164.4
			c15.7,0,31.3,0,47,0c2.6,0,5.4-0.2,7.9-0.8c5-1.2,8.9-4,10-9.3c1.2-5.4-2.3-8.3-6.3-10.8c-23.9-15.3-50-20.2-77.9-15.6
			c-14.7,2.4-28.1,7.9-40.5,16.2c-7.8,5.2-7.6,13.4,0.7,17.8c3.2,1.7,7.3,2.4,11,2.5C83,164.5,99,164.4,115,164.4z"/>
		<path class="st1" d="M156.4,63.4c-0.4,23.1-19.3,41.3-42.3,40.9c-22.5-0.4-40.8-19.4-40.5-42.2c0.3-23.4,19.4-41.3,43.3-40.8
			C138.8,21.9,156.8,41.1,156.4,63.4z M115.1,92.6c16.5-0.1,29.8-13.2,29.8-29.7c0.1-16.6-13.6-30.3-30.1-30.2
			C98.5,32.8,85.1,46.3,85,62.6C85,79.4,98.3,92.7,115.1,92.6z"/>
	</g>
	<path class="st1" d="M203.6,22.1H187V5.5c0-3-2.5-5.5-5.5-5.5S176,2.4,176,5.5v16.7h-16.7c-3,0-5.5,2.5-5.5,5.5s2.5,5.5,5.5,5.5
		H176v16.7c0,3,2.5,5.5,5.5,5.5s5.5-2.5,5.5-5.5V33.1h16.7c3,0,5.5-2.5,5.5-5.5S206.7,22.1,203.6,22.1z"/>
</g>
</svg>
