<svg id="Layer_1" data-name="Layer 1" xmlns="http://www.w3.org/2000/svg" viewBox="0 0 247.38 59.02"><defs><style>.cls-1{fill:#fff;}</style></defs><title>web elements</title><polygon class="cls-1" points="0 0 10.16 0 44.98 59.02 34.81 59.02 0 0"/><polygon class="cls-1" points="22.49 0 32.65 0 67.47 59.02 57.3 59.02 22.49 0"/><polygon class="cls-1" points="44.98 0 55.14 0 89.95 59.02 79.79 59.02 44.98 0"/><polygon class="cls-1" points="67.47 0 77.63 0 112.44 59.02 102.28 59.02 67.47 0"/><polygon class="cls-1" points="89.95 0 100.12 0 134.93 59.02 124.77 59.02 89.95 0"/><polygon class="cls-1" points="112.44 0 122.61 0 157.42 59.02 147.26 59.02 112.44 0"/><polygon class="cls-1" points="134.93 0 145.1 0 179.91 59.02 169.75 59.02 134.93 0"/><polygon class="cls-1" points="157.42 0 167.59 0 202.4 59.02 192.24 59.02 157.42 0"/><polygon class="cls-1" points="179.91 0 190.07 0 224.89 59.02 214.72 59.02 179.91 0"/><polygon class="cls-1" points="202.4 0 212.56 0 247.38 59.02 237.21 59.02 202.4 0"/></svg>