<svg id="Layer_1" data-name="Layer 1" xmlns="http://www.w3.org/2000/svg" viewBox="0 0 194.4 185.38"><defs><style>.cls-1{fill:#141433;}</style></defs><title>web elements</title><rect class="cls-1" width="7.66" height="7.66"/><rect class="cls-1" x="23.34" width="7.66" height="7.66"/><rect class="cls-1" x="46.68" width="7.66" height="7.66"/><rect class="cls-1" x="70.03" width="7.66" height="7.66"/><rect class="cls-1" x="93.37" width="7.66" height="7.66"/><rect class="cls-1" x="116.71" width="7.66" height="7.66"/><rect class="cls-1" x="140.05" width="7.66" height="7.66"/><rect class="cls-1" x="163.39" width="7.66" height="7.66"/><rect class="cls-1" x="186.73" width="7.66" height="7.66"/><rect class="cls-1" y="22.21" width="7.66" height="7.66"/><rect class="cls-1" x="23.34" y="22.21" width="7.66" height="7.66"/><rect class="cls-1" x="46.68" y="22.21" width="7.66" height="7.66"/><rect class="cls-1" x="70.03" y="22.21" width="7.66" height="7.66"/><rect class="cls-1" x="93.37" y="22.21" width="7.66" height="7.66"/><rect class="cls-1" x="116.71" y="22.21" width="7.66" height="7.66"/><rect class="cls-1" x="140.05" y="22.21" width="7.66" height="7.66"/><rect class="cls-1" x="163.39" y="22.21" width="7.66" height="7.66"/><rect class="cls-1" x="186.73" y="22.21" width="7.66" height="7.66"/><rect class="cls-1" y="44.43" width="7.66" height="7.66"/><rect class="cls-1" x="23.34" y="44.43" width="7.66" height="7.66"/><rect class="cls-1" x="46.68" y="44.43" width="7.66" height="7.66"/><rect class="cls-1" x="70.03" y="44.43" width="7.66" height="7.66"/><rect class="cls-1" x="93.37" y="44.43" width="7.66" height="7.66"/><rect class="cls-1" x="116.71" y="44.43" width="7.66" height="7.66"/><rect class="cls-1" x="140.05" y="44.43" width="7.66" height="7.66"/><rect class="cls-1" x="163.39" y="44.43" width="7.66" height="7.66"/><rect class="cls-1" x="186.73" y="44.43" width="7.66" height="7.66"/><rect class="cls-1" y="66.64" width="7.66" height="7.66"/><rect class="cls-1" x="23.34" y="66.64" width="7.66" height="7.66"/><rect class="cls-1" x="46.68" y="66.64" width="7.66" height="7.66"/><rect class="cls-1" x="70.03" y="66.64" width="7.66" height="7.66"/><rect class="cls-1" x="93.37" y="66.64" width="7.66" height="7.66"/><rect class="cls-1" x="116.71" y="66.64" width="7.66" height="7.66"/><rect class="cls-1" x="140.05" y="66.64" width="7.66" height="7.66"/><rect class="cls-1" x="163.39" y="66.64" width="7.66" height="7.66"/><rect class="cls-1" x="186.73" y="66.64" width="7.66" height="7.66"/><rect class="cls-1" y="88.86" width="7.66" height="7.66"/><rect class="cls-1" x="23.34" y="88.86" width="7.66" height="7.66"/><rect class="cls-1" x="46.68" y="88.86" width="7.66" height="7.66"/><rect class="cls-1" x="70.03" y="88.86" width="7.66" height="7.66"/><rect class="cls-1" x="93.37" y="88.86" width="7.66" height="7.66"/><rect class="cls-1" x="116.71" y="88.86" width="7.66" height="7.66"/><rect class="cls-1" x="140.05" y="88.86" width="7.66" height="7.66"/><rect class="cls-1" x="163.39" y="88.86" width="7.66" height="7.66"/><rect class="cls-1" x="186.73" y="88.86" width="7.66" height="7.66"/><rect class="cls-1" y="111.07" width="7.66" height="7.66"/><rect class="cls-1" x="23.34" y="111.07" width="7.66" height="7.66"/><rect class="cls-1" x="46.68" y="111.07" width="7.66" height="7.66"/><rect class="cls-1" x="70.03" y="111.07" width="7.66" height="7.66"/><rect class="cls-1" x="93.37" y="111.07" width="7.66" height="7.66"/><rect class="cls-1" x="116.71" y="111.07" width="7.66" height="7.66"/><rect class="cls-1" x="140.05" y="111.07" width="7.66" height="7.66"/><rect class="cls-1" x="163.39" y="111.07" width="7.66" height="7.66"/><rect class="cls-1" x="186.73" y="111.07" width="7.66" height="7.66"/><rect class="cls-1" y="133.29" width="7.66" height="7.66"/><rect class="cls-1" x="23.34" y="133.29" width="7.66" height="7.66"/><rect class="cls-1" x="46.68" y="133.29" width="7.66" height="7.66"/><rect class="cls-1" x="70.03" y="133.29" width="7.66" height="7.66"/><rect class="cls-1" x="93.37" y="133.29" width="7.66" height="7.66"/><rect class="cls-1" x="116.71" y="133.29" width="7.66" height="7.66"/><rect class="cls-1" x="140.05" y="133.29" width="7.66" height="7.66"/><rect class="cls-1" x="163.39" y="133.29" width="7.66" height="7.66"/><rect class="cls-1" x="186.73" y="133.29" width="7.66" height="7.66"/><rect class="cls-1" y="155.5" width="7.66" height="7.66"/><rect class="cls-1" x="23.34" y="155.5" width="7.66" height="7.66"/><rect class="cls-1" x="46.68" y="155.5" width="7.66" height="7.66"/><rect class="cls-1" x="70.03" y="155.5" width="7.66" height="7.66"/><rect class="cls-1" x="93.37" y="155.5" width="7.66" height="7.66"/><rect class="cls-1" x="116.71" y="155.5" width="7.66" height="7.66"/><rect class="cls-1" x="140.05" y="155.5" width="7.66" height="7.66"/><rect class="cls-1" x="163.39" y="155.5" width="7.66" height="7.66"/><rect class="cls-1" x="186.73" y="155.5" width="7.66" height="7.66"/><rect class="cls-1" y="177.72" width="7.66" height="7.66"/><rect class="cls-1" x="23.34" y="177.72" width="7.66" height="7.66"/><rect class="cls-1" x="46.68" y="177.72" width="7.66" height="7.66"/><rect class="cls-1" x="70.03" y="177.72" width="7.66" height="7.66"/><rect class="cls-1" x="93.37" y="177.72" width="7.66" height="7.66"/><rect class="cls-1" x="116.71" y="177.72" width="7.66" height="7.66"/><rect class="cls-1" x="140.05" y="177.72" width="7.66" height="7.66"/><rect class="cls-1" x="163.39" y="177.72" width="7.66" height="7.66"/><rect class="cls-1" x="186.73" y="177.72" width="7.66" height="7.66"/></svg>