<svg id="Layer_1" data-name="Layer 1" xmlns="http://www.w3.org/2000/svg" viewBox="0 0 286.41 91.56"><defs><style>.cls-1{fill:#35f;}.cls-2{fill:#141433;}</style></defs><title>web elements</title><polygon class="cls-1" points="207.1 81 225.37 91.56 286.39 56.36 286.4 56.35 286.39 56.35 286.4 35.25 286.41 35.25 286.4 35.24 225.41 0 207.13 10.54 268.13 45.79 207.1 81"/><polygon class="cls-2" points="103.55 81 121.82 91.56 182.84 56.36 182.85 56.35 182.84 56.35 182.85 35.25 182.86 35.25 182.85 35.24 121.86 0 103.58 10.54 164.58 45.79 103.55 81"/><polygon class="cls-1" points="0 81 18.27 91.56 79.29 56.36 79.3 56.35 79.29 56.35 79.3 35.25 79.31 35.25 79.3 35.24 18.31 0 0.03 10.54 61.03 45.79 0 81"/></svg>