<?xml version="1.0" standalone="no"?>
<!DOCTYPE svg PUBLIC "-//W3C//DTD SVG 20010904//EN"
 "http://www.w3.org/TR/2001/REC-SVG-20010904/DTD/svg10.dtd">
<svg version="1.0" xmlns="http://www.w3.org/2000/svg"
 width="1592.000000pt" height="1592.000000pt" viewBox="0 0 1592.000000 1592.000000"
 preserveAspectRatio="xMidYMid meet">
<metadata>
Created by potrace 1.14, written by Peter Selinger 2001-2017
</metadata>
<g transform="translate(0.000000,1592.000000) scale(0.100000,-0.100000)"
fill="#000000" stroke="none">
<path d="M6472 12536 c-210 -209 -382 -384 -382 -387 0 -6 119 -209 375 -639
70 -118 137 -231 147 -250 10 -19 33 -57 50 -85 17 -27 36 -59 42 -70 6 -11
58 -99 115 -195 57 -96 161 -272 231 -390 70 -118 250 -422 401 -675 150 -253
282 -476 293 -496 12 -20 39 -66 61 -103 22 -37 47 -79 55 -94 9 -15 74 -126
146 -247 72 -121 171 -287 219 -370 48 -82 131 -222 183 -310 52 -88 104 -176
115 -195 19 -35 137 -235 314 -533 51 -87 93 -162 93 -167 0 -6 5 -10 10 -10
6 0 10 -4 10 -8 0 -5 73 -132 161 -283 89 -151 170 -288 179 -305 10 -17 38
-64 62 -105 46 -76 308 -521 338 -574 10 -16 77 -131 151 -255 73 -124 144
-246 158 -272 l26 -48 55 -1 c239 -3 1173 0 1177 4 2 3 -84 155 -193 339 -108
183 -256 432 -327 553 -110 186 -181 305 -244 410 -7 11 -16 27 -20 35 -4 8
-32 58 -64 110 -31 52 -109 185 -174 295 -65 110 -145 245 -178 300 -33 55
-68 114 -77 130 -19 34 -216 368 -395 670 -219 369 -408 689 -455 770 -26 44
-90 153 -143 243 -54 89 -97 167 -97 171 0 5 -4 11 -8 13 -4 2 -21 26 -36 53
-16 28 -71 120 -122 206 -51 87 -102 174 -114 194 -11 20 -56 96 -99 168 -84
142 -391 662 -416 705 -5 9 -26 44 -46 77 -21 33 -46 76 -57 95 -29 53 -403
683 -414 700 -17 24 70 -68 142 -149 36 -41 81 -93 101 -115 20 -23 94 -106
164 -186 71 -80 147 -166 169 -191 23 -25 54 -61 70 -80 47 -54 169 -191 196
-220 14 -15 133 -91 265 -170 132 -78 310 -184 395 -234 85 -51 227 -135 315
-187 88 -52 261 -155 385 -228 124 -73 230 -138 237 -144 9 -8 -24 -32 -133
-96 -81 -47 -165 -96 -189 -110 -23 -14 -153 -90 -288 -169 -187 -110 -244
-148 -239 -160 3 -9 34 -61 67 -117 34 -56 65 -108 69 -115 4 -8 12 -23 19
-34 13 -22 166 -280 182 -307 119 -204 190 -318 197 -318 6 0 87 46 181 102
95 56 181 107 192 113 11 6 108 63 215 127 107 63 299 176 425 251 127 75 255
152 286 171 l57 35 -1 614 0 614 -216 129 c-119 70 -227 136 -241 145 -14 9
-151 92 -305 183 -154 92 -287 172 -295 177 -78 47 -560 335 -575 343 -11 6
-125 74 -253 151 -128 77 -245 147 -260 156 -15 9 -209 125 -432 259 -223 134
-417 250 -433 259 -15 9 -147 88 -293 176 -259 155 -292 175 -419 251 -33 19
-78 46 -100 60 -22 13 -56 33 -75 44 -19 11 -48 29 -65 40 -16 11 -37 23 -45
27 -8 4 -54 31 -102 60 -47 29 -88 52 -90 52 -1 -1 -175 -173 -386 -383z"/>
<path d="M4693 10450 l-32 -5 51 -85 c28 -47 59 -100 70 -119 10 -18 61 -103
112 -190 51 -86 153 -257 226 -381 73 -124 160 -270 193 -325 33 -55 68 -115
79 -134 10 -18 47 -81 82 -140 35 -58 135 -227 223 -376 88 -148 220 -371 294
-495 73 -124 142 -240 152 -259 10 -19 41 -70 68 -113 27 -44 49 -84 49 -90 0
-15 15 -7 223 116 106 62 206 122 224 132 105 61 385 228 425 253 l47 30 -76
128 c-96 161 -289 488 -468 793 -76 129 -155 263 -176 297 -22 34 -39 65 -39
67 0 3 -17 33 -39 68 -40 66 -205 344 -331 558 -40 69 -90 153 -111 187 -22
34 -39 67 -39 73 0 5 -12 10 -27 11 -150 3 -1156 3 -1180 -1z"/>
<path d="M7920 8555 c-58 -36 -112 -68 -120 -72 -8 -5 -60 -35 -115 -67 -356
-211 -814 -482 -837 -495 -67 -41 -145 -86 -165 -97 -22 -13 -310 -183 -405
-240 -32 -19 -68 -40 -80 -47 -13 -7 -112 -65 -220 -130 -109 -64 -287 -169
-395 -234 -586 -345 -717 -424 -723 -433 -3 -5 -5 -281 -5 -615 l0 -606 37
-22 c21 -12 75 -44 120 -72 46 -27 92 -54 103 -60 11 -7 133 -79 270 -162 138
-83 266 -160 285 -171 71 -40 747 -446 795 -477 28 -18 55 -34 60 -36 6 -2
115 -67 243 -144 128 -77 248 -148 265 -159 72 -42 1683 -1006 1817 -1087 80
-49 161 -97 181 -108 l36 -19 387 386 386 386 -21 35 c-12 20 -95 160 -184
311 -89 151 -201 340 -249 419 -47 78 -86 145 -86 147 0 3 -11 21 -24 42 -13
20 -89 147 -168 282 -80 135 -204 344 -275 465 -72 121 -197 333 -278 470 -82
138 -184 311 -228 385 -85 144 -146 248 -301 510 -54 91 -101 168 -105 173 -4
4 -50 -38 -102 -94 -52 -56 -110 -118 -129 -139 -75 -80 -256 -275 -270 -290
-8 -9 -62 -68 -120 -130 -58 -63 -111 -120 -119 -126 -19 -15 -19 -15 115
-242 64 -108 127 -215 139 -237 13 -22 81 -137 151 -256 l129 -217 120 -102
c66 -56 147 -126 180 -155 33 -29 96 -84 141 -121 344 -293 537 -463 469 -414
-11 8 -29 20 -40 26 -11 6 -191 114 -400 239 -1387 834 -1714 1030 -1746 1049
-48 29 -392 237 -426 258 -16 10 -35 21 -43 25 -8 4 -28 14 -44 24 l-28 17 41
27 c23 14 59 35 79 47 28 15 708 416 894 527 29 17 337 199 366 216 95 56 239
141 337 200 66 39 127 74 135 78 8 4 27 15 42 25 26 16 451 268 536 317 113
65 233 139 237 146 3 4 -28 63 -68 131 -62 104 -324 544 -431 726 -17 28 -33
52 -36 52 -3 -1 -52 -30 -110 -65z"/>
</g>
</svg>
