<svg id="Grupo_216" data-name="Grupo 216" xmlns="http://www.w3.org/2000/svg" width="143.198" height="34.163" viewBox="0 0 143.198 34.163">
  <path id="Trazado_785" data-name="Trazado 785" d="M0,0H5.884L26.036,34.163H20.152Z" transform="translate(0 0)" fill="#fff"/>
  <path id="Trazado_786" data-name="Trazado 786" d="M22.489,0h5.884L48.525,34.163H42.641Z" transform="translate(-9.471)" fill="#fff"/>
  <path id="Trazado_787" data-name="Trazado 787" d="M44.978,0h5.884L71.014,34.163H65.13Z" transform="translate(-18.942)" fill="#fff"/>
  <path id="Trazado_788" data-name="Trazado 788" d="M67.466,0H73.35L93.5,34.163H87.618Z" transform="translate(-28.412)" fill="#fff"/>
  <path id="Trazado_789" data-name="Trazado 789" d="M89.955,0h5.884l20.152,34.163h-5.884Z" transform="translate(-37.883)" fill="#fff"/>
  <path id="Trazado_790" data-name="Trazado 790" d="M112.444,0h5.884L138.48,34.163H132.6Z" transform="translate(-47.354)" fill="#fff"/>
  <path id="Trazado_791" data-name="Trazado 791" d="M134.933,0h5.884l20.152,34.163h-5.884Z" transform="translate(-56.825)" fill="#fff"/>
  <path id="Trazado_792" data-name="Trazado 792" d="M157.421,0h5.884l20.152,34.163h-5.884Z" transform="translate(-66.295)" fill="#fff"/>
  <path id="Trazado_793" data-name="Trazado 793" d="M179.91,0h5.884l20.152,34.163h-5.884Z" transform="translate(-75.766)" fill="#fff"/>
  <path id="Trazado_794" data-name="Trazado 794" d="M202.4,0h5.884l20.152,34.163h-5.884Z" transform="translate(-85.237)" fill="#fff"/>
</svg>
