<svg id="consulting" xmlns="http://www.w3.org/2000/svg" width="51.188" height="53.147" viewBox="0 0 51.188 53.147">
  <path id="Trazado_362" data-name="Trazado 362" d="M151.914,99.119v12.542c0,2.176-.512,2.656-2.752,2.656h-8.127c-1.6,0-2.336-.672-2.336-2.336.032-8.607,0-17.213.032-25.82A3.821,3.821,0,0,1,142.7,82.1c1.76-.064,3.551-.064,5.311,0a3.669,3.669,0,0,1,3.871,3.9c.064,4.383,0,8.767.032,13.118Zm-3.839,11.358V86.1h-5.5v24.38Z" transform="translate(-100.726 -61.203)" fill="#141433"/>
  <path id="Trazado_363" data-name="Trazado 363" d="M66.537,21.982c-1.312-.48-2.432-.864-3.519-1.344s-1.792-1.28-1.28-2.528a1.865,1.865,0,0,1,2.656-1.024c2.592.96,5.183,1.952,7.775,2.912a1.855,1.855,0,0,1,1.248,2.656c-.928,2.528-1.984,5.055-2.88,7.583-.448,1.28-1.312,1.888-2.56,1.44-1.376-.48-1.312-1.664-.928-2.816.32-.992.7-1.984,1.184-3.327-2.5,1.088-4.767,2.08-7.007,3.1Q45.437,35.836,29.615,43a2.793,2.793,0,0,1-1.824.384c-.608-.192-1.44-.864-1.5-1.376a2.486,2.486,0,0,1,.96-1.984A46.441,46.441,0,0,1,32.335,37.6C43.469,32.6,54.571,27.549,65.705,22.526A5.694,5.694,0,0,0,66.537,21.982Z" transform="translate(-24.276 -16.892)" fill="#141433"/>
  <path id="Trazado_364" data-name="Trazado 364" d="M92.463,114.315c0,3.135.032,6.239,0,9.374-.032,2.272-.576,2.816-2.816,2.816-2.72,0-5.407-.032-8.127,0a2.086,2.086,0,0,1-2.4-2.368c-.032-6.655-.064-13.31,0-19.965.032-2.72,1.664-4.159,4.383-4.223,1.408-.032,2.816-.032,4.255,0,3.136.032,4.639,1.472,4.7,4.639C92.5,107.82,92.463,111.083,92.463,114.315Zm-9.438-10.43v18.685H88.5V103.884Z" transform="translate(-60.184 -73.359)" fill="#141433"/>
  <path id="Trazado_365" data-name="Trazado 365" d="M33.221,128.934V136c0,1.824-.64,2.464-2.4,2.464-2.816,0-5.663-.032-8.479,0a1.98,1.98,0,0,1-2.3-2.24c0-4.959-.064-9.918,0-14.846a3.449,3.449,0,0,1,3.2-3.615,31.768,31.768,0,0,1,6.527-.064c2.368.256,3.423,1.7,3.455,4.127ZM23.815,134.6H29.35v-12.99H23.815C23.815,125.99,23.815,130.214,23.815,134.6Z" transform="translate(-20.011 -85.355)" fill="#141433"/>
</svg>
