<svg id="infraestructure" xmlns="http://www.w3.org/2000/svg" width="52.171" height="52.146" viewBox="0 0 52.171 52.146">
  <path id="Trazado_369" data-name="Trazado 369" d="M37.507,38.388c0-1.865.06-3.55-.03-5.2a1.387,1.387,0,0,0-.842-.9A10.043,10.043,0,0,1,32,16.247c2.2-2.527,5.144-3.1,8.333-2.918,4,.211,7.19,2.5,8.213,5.9,1.384,4.633.12,9.386-3.249,11.672a33.5,33.5,0,0,1-3.159,1.414,1.621,1.621,0,0,0-.782.963c-.09,1.624-.03,3.249-.03,5.024.511.03.993.09,1.474.09,2.527,0,5.054-.03,7.581,0,6.317.09,10.168,3.881,10.288,10.168a2.492,2.492,0,0,0,1.534,2.587,6.2,6.2,0,0,1,3.068,4.392c.933,3.941-.6,7.671-3.881,9.175-3.55,1.624-8.333.451-10.168-2.527-2.136-3.46-1.414-8.453,1.715-10.71a20.27,20.27,0,0,1,3.73-1.685,5.936,5.936,0,0,0-6.317-7.521c-2.8.15-5.6.03-8.363.03a4.059,4.059,0,0,0-.6.09c0,2.437-.03,4.873.03,7.34,0,.211.421.572.692.632,3.46.782,5.776,4.573,4.9,9.266-.662,3.64-3.61,5.836-7.671,5.746-3.52-.06-6.047-1.685-7.1-4.573-1.233-3.4-.361-7.25,2.166-9.236a24.781,24.781,0,0,1,3.129-1.715V42.269H33.3c-1.624,0-3.249.09-4.873-.03a5.842,5.842,0,0,0-6.348,6.378,10.6,10.6,0,0,1,0,1.384c3.219.451,5.445,1.985,6.348,5.114.963,3.279.09,6.919-2.346,8.694-2.828,2.076-5.956,2.016-9.055.632A5.789,5.789,0,0,1,13.772,60.5c-.963-3.429-.361-8.153,3.76-9.9.331-.15.511-.842.6-1.324.331-1.715.211-3.58.9-5.114,1.8-4,5.114-5.836,9.506-5.776C31.491,38.418,34.409,38.388,37.507,38.388ZM33.627,22.925c-.03,3.73,1.9,5.716,5.656,5.836,3.76.09,5.836-1.925,5.9-5.746.06-3.76-1.865-5.806-5.445-5.836C35.582,17.119,33.687,18.924,33.627,22.925ZM24.9,57.641c0-2.5-1.294-3.79-3.821-3.79-2.587,0-3.851,1.263-3.851,3.911,0,2.587,1.294,3.79,3.941,3.79C23.669,61.492,24.933,60.2,24.9,57.641Zm14.53-3.79c-2.738,0-3.79,1.173-3.79,4.182,0,2.226,1.294,3.46,3.7,3.46,2.617,0,3.881-1.2,3.881-3.7C43.223,55.084,42.05,53.851,39.433,53.851ZM61.574,57.7c0-2.557-1.2-3.821-3.76-3.851-2.587-.03-3.911,1.263-3.911,3.821,0,2.527,1.263,3.851,3.76,3.851C60.31,61.522,61.574,60.289,61.574,57.7Z" transform="translate(-13.372 -13.298)" fill="#141433"/>
</svg>
