<svg xmlns="http://www.w3.org/2000/svg" width="65" height="272.456" viewBox="0 0 65 272.456">
  <g id="Grupo_110" data-name="Grupo 110" transform="translate(-1076.462 657.513) rotate(90)">
    <path id="Trazado_36" data-name="Trazado 36" d="M-657.513-1141.462h11.195l38.343,65h-11.195Z" fill="#fff"/>
    <path id="Trazado_37" data-name="Trazado 37" d="M-614.825-1141.462h11.195l38.343,65h-11.2Z" transform="translate(-17.919)" fill="#fff"/>
    <path id="Trazado_38" data-name="Trazado 38" d="M-572.137-1141.462h11.195l38.343,65h-11.195Z" transform="translate(-35.839)" fill="#fff"/>
    <path id="Trazado_39" data-name="Trazado 39" d="M-529.449-1141.462h11.2l38.343,65h-11.2Z" transform="translate(-53.758)" fill="#fff"/>
    <path id="Trazado_40" data-name="Trazado 40" d="M-486.761-1141.462h11.195l38.343,65h-11.195Z" transform="translate(-71.677)" fill="#fff"/>
    <path id="Trazado_41" data-name="Trazado 41" d="M-444.073-1141.462h11.2l38.343,65H-405.73Z" transform="translate(-89.597)" fill="#fff"/>
    <path id="Trazado_42" data-name="Trazado 42" d="M-401.385-1141.462h11.195l38.343,65h-11.195Z" transform="translate(-107.516)" fill="#fff"/>
    <path id="Trazado_43" data-name="Trazado 43" d="M-358.7-1141.462H-347.5l38.343,65h-11.195Z" transform="translate(-125.435)" fill="#fff"/>
    <path id="Trazado_44" data-name="Trazado 44" d="M-316.008-1141.462h11.195l38.343,65h-11.195Z" transform="translate(-143.355)" fill="#fff"/>
    <path id="Trazado_45" data-name="Trazado 45" d="M-273.32-1141.462h11.195l38.343,65h-11.195Z" transform="translate(-161.274)" fill="#fff"/>
  </g>
</svg>
