<svg id="staffaugm" xmlns="http://www.w3.org/2000/svg" width="51.691" height="53.147" viewBox="0 0 51.691 53.147">
  <g id="Grupo_177" data-name="Grupo 177" transform="translate(0 6.438)">
    <path id="Trazado_366" data-name="Trazado 366" d="M48.326,136.681c-5.232,0-10.464.06-15.7-.03a7.249,7.249,0,0,1-6.593-4.083,5.923,5.923,0,0,1,2.056-7.954,33.383,33.383,0,0,1,15.726-6.048,35.778,35.778,0,0,1,21.623,3.9,31.339,31.339,0,0,1,3.206,1.966c4.385,3.115,3.962,8.891-.877,11.25a10.531,10.531,0,0,1-4.173.968c-5.111.121-10.191.06-15.272.03Zm.151-3.387H62.691a10.505,10.505,0,0,0,2.389-.242A3.643,3.643,0,0,0,68.1,130.24c.363-1.633-.7-2.51-1.905-3.266a32.5,32.5,0,0,0-23.558-4.718,30.649,30.649,0,0,0-12.248,4.9c-2.359,1.573-2.3,4.052.212,5.383a7.771,7.771,0,0,0,3.327.756C38.8,133.324,43.638,133.294,48.477,133.294Z" transform="translate(-25.273 -90.015)" fill="#141433"/>
    <path id="Trazado_367" data-name="Trazado 367" d="M85.638,37.525A12.522,12.522,0,1,1,73.692,24.793,12.553,12.553,0,0,1,85.638,37.525Zm-12.49,8.831a8.989,8.989,0,0,0,9.012-8.982,9.058,9.058,0,1,0-18.115-.091A8.991,8.991,0,0,0,73.148,46.355Z" transform="translate(-49.914 -24.79)" fill="#141433"/>
  </g>
  <path id="Trazado_368" data-name="Trazado 368" d="M155.86,10.183h-5.02V5.163A1.678,1.678,0,0,0,149.177,3.5a1.658,1.658,0,0,0-1.663,1.663v5.05h-5.05a1.663,1.663,0,1,0,0,3.327h5.05v5.05a1.663,1.663,0,1,0,3.327,0V13.51h5.05a1.663,1.663,0,1,0-.03-3.327Z" transform="translate(-105.863 -3.5)" fill="#141433"/>
</svg>
