<svg id="Layer_1" data-name="Layer 1" xmlns="http://www.w3.org/2000/svg" viewBox="0 0 602.98 763.91"><defs><style>.cls-1{fill:#fff;}</style></defs><title>JAZUSOFT - Versiones (vectores)</title><polygon class="cls-1" points="263.83 367.22 201.94 262.38 143 262.38 220.27 392.96 263.83 367.22"/><polygon class="cls-1" points="263.32 465.73 289.49 510.18 335.71 549.99 202.24 469.78 330.75 393.87 304.88 350.29 152.43 440.39 152.43 499.02 354.5 619.91 391.51 582.91 299.28 427.01 263.32 465.73"/><polygon class="cls-1" points="281.75 199.8 324.47 248.15 401.07 293.68 359.06 318.41 384.84 362.02 450.02 323.49 450.05 264.61 248.65 144 211.5 180.82 309.5 346.35 400.82 501.5 459.98 501.5 281.75 199.8"/></svg>