<svg xmlns="http://www.w3.org/2000/svg" width="34.238" height="51.404" viewBox="0 0 34.238 51.404">
  <g id="JAZUSOFT_-_Versiones_vectores_-13" data-name="JAZUSOFT - Versiones (vectores)-13" transform="translate(-143 -144)">
    <path id="Trazado_782" data-name="Trazado 782" d="M156.051,273.7l-6.685-11.324H143l8.346,14.1Z" transform="translate(0 -105.594)" fill="#35f"/>
    <path id="Trazado_783" data-name="Trazado 783" d="M164.407,362.759l2.827,4.8,4.992,4.3L157.81,363.2l13.881-8.2L168.9,350.29l-16.466,9.732v6.333l21.826,13.058,4-4-9.962-16.839Z" transform="translate(-8.411 -184.008)" fill="#35f"/>
    <path id="Trazado_784" data-name="Trazado 784" d="M219.088,150.027l4.614,5.222,8.274,4.918-4.538,2.671,2.785,4.71,7.04-4.162,0-6.36L215.513,144l-4.013,3.977,10.585,17.879,9.864,16.758h6.39Z" transform="translate(-61.101)" fill="#35f"/>
  </g>
</svg>
