<svg id="Layer_1" data-name="Layer 1" xmlns="http://www.w3.org/2000/svg" viewBox="0 0 1562.71 766.55"><defs><style>.cls-1{fill:#141433;}.cls-2{fill:#35f;}</style></defs><title>JAZUSOFT - Versiones (vectores)</title><path class="cls-1" d="M671.76,274.29H585.9l-7.92,38h42.29L588,464.47q-2.67,11.32-9,16.65t-17.65,5.33A137,137,0,0,1,537,483.79l-9.33,38a158.51,158.51,0,0,0,33.64,4q29.64,0,46.3-14.32t23-44.63Z"/><polygon class="cls-1" points="907.72 274.29 814.04 274.29 804.04 313.59 850.76 313.59 757.56 482.52 757.56 482.52 779.23 359.08 738.96 359.08 785.74 274.29 709.64 274.29 618.72 522.08 663.68 522.08 733.91 328.91 711.31 522.08 747.51 522.08 755.27 522.08 856.09 522.08 864.42 482.78 803.8 482.78 900.72 307.26 907.72 274.29"/><path class="cls-1" d="M988.6,274.29,948.06,463.94q-4.34,23-19.32,23-11.32,0-11.33-13.66a52,52,0,0,1,1-9.32L959,274.29H915.32L875.78,459.61a110.56,110.56,0,0,0-2.66,24q0,21.32,11.65,31.8t35.64,10.5q29.64,0,47.3-16.16t25-50.45l39.53-185Z"/><path class="cls-1" d="M1070.89,382.53q-9.66-6-14-10.49t-4.33-12.49a53.76,53.76,0,0,1,.67-6.33l9.33-43.3a22.43,22.43,0,0,1,7.49-12.65,21.47,21.47,0,0,1,14.49-5q15.65,0,15.65,15a31.44,31.44,0,0,1-1,7.66l-8.32,39.3h22.31l8.66-39.3a79.49,79.49,0,0,0,1.33-11.33q0-15.31-9.32-23.81t-27-8.49q-18.33,0-31,10.16t-16.32,27.47l-9,41.64a69.28,69.28,0,0,0-1.33,13.65q0,13.67,6.16,21.48t17.82,14.82q11.65,7,16.49,12t4.82,14a38.79,38.79,0,0,1-1,8l-10.32,49.29q-2,9.66-8.16,15.32a21.54,21.54,0,0,1-15.15,5.66q-9,0-13-4.66t-4-12.32a54.21,54.21,0,0,1,.67-7.33l9.32-43.3h-23l-9.32,43.3a61.18,61.18,0,0,0-1.34,12.65q0,15.66,9.83,24.15t27.81,8.49q19.3,0,32.31-10.82t17-29.48l10.33-49.95a58,58,0,0,0,1.66-14q0-13.32-6.83-22.32T1070.89,382.53Z"/><path class="cls-1" d="M1225.92,306.59q0-17.31-9.32-26.31t-27.31-9q-22,0-35.14,13.65T1135,325.58l-31,145.54a82.39,82.39,0,0,0-2.34,19.32q0,17.32,9.16,26.31t27.15,9q22.3,0,35.64-13.65t19.31-41l30.64-145.54A81,81,0,0,0,1225.92,306.59Zm-25,17.32-32,148.88q-6.66,32-27.64,32-16,0-16-18a57,57,0,0,1,1.67-14l31.64-148.88q6.66-31.64,27.64-31.64,16.32,0,16.32,18.32A72.41,72.41,0,0,1,1201,323.91Z"/><polygon class="cls-1" points="1268.28 295.92 1315.24 295.92 1319.86 274.29 1249.25 274.29 1196.54 522.08 1220.19 522.08 1243.25 412.5 1284.22 412.5 1288.55 391.52 1247.92 391.52 1268.28 295.92"/><polygon class="cls-1" points="1331.39 274.29 1327.07 295.93 1358.71 295.93 1310.41 522.08 1333.73 522.08 1381.69 295.93 1413.66 295.93 1418.32 274.29 1331.39 274.29"/><polygon class="cls-2" points="265.69 368.49 203.56 263.23 144.39 263.23 221.96 394.33 265.69 368.49"/><polygon class="cls-2" points="265.18 467.38 291.45 512.01 337.86 551.97 203.86 471.45 332.87 395.23 306.9 351.49 153.85 441.94 153.85 500.8 356.72 622.17 393.88 585.02 301.28 428.51 265.18 467.38"/><polygon class="cls-2" points="283.68 200.41 326.57 248.95 403.47 294.65 361.3 319.48 387.18 363.26 452.61 324.59 452.65 265.47 250.45 144.39 213.16 181.35 311.55 347.53 403.22 503.29 462.61 503.29 283.68 200.41"/></svg>