<svg id="gear-01" xmlns="http://www.w3.org/2000/svg" width="48.969" height="53.147" viewBox="0 0 48.969 53.147">
  <path id="Trazado_359" data-name="Trazado 359" d="M53.17,75.905c-4.4,0-5.9-1.032-7.429-5.159a6.72,6.72,0,0,0-7.081-4.237c-5.616.746-9.974-2.937-9.888-8.288.031-2.019,1.2-3.4,2.356-4.815,1.74-2.15,1.867-6,0-8-4.106-4.433-2.359-8.027,1.149-12.061a4.814,4.814,0,0,1,4.942-1.276c2.3.54,4.437.426,6.249-1.211a6.619,6.619,0,0,0,2.064-2.5c1.881-5.764,5.159-6.115,10.785-5.245a5.1,5.1,0,0,1,4.072,4.241c.619,2.848,2.848,3.814,5.025,4.915a2.95,2.95,0,0,0,1.489.072c1.255-.11,2.5-.306,3.756-.4a4.33,4.33,0,0,1,1.352.224c4.471,1.152,6.988,8.254,4.265,11.944-1.032,1.376-2.3,2.518-2.27,4.612a8.171,8.171,0,0,0,1.957,5.6c2.222,2.607,2.253,4.774.547,7.728-1.032,1.788-1.895,3.883-4.127,4.351a17.328,17.328,0,0,1-5.08.034,7.432,7.432,0,0,0-6.534,3.91,16.133,16.133,0,0,1-2.218,4.007C57.5,75.664,56.045,75.905,53.17,75.905ZM70.1,62.812c1.792.292,2.136-1.376,2.882-2.521.688-1.032,1.156-2.064.193-3.295-1.032-1.29-2.521-2.593-2.751-4.051-.55-3.615-1.207-7.467,2.064-10.414,1.486-1.334,1.444-2.751.371-4.406-1.482-2.3-1.575-2.407-4.086-2.094-1.455.175-3.157.626-4.368.089-3.37-1.486-6.878-3.075-7.68-7.353-.344-1.9-1.761-2.094-3.391-2.088-1.72,0-3.133.079-3.752,2.132-.437,1.444-.977,3.209-2.064,4.027-2.91,2.191-5.964,4.6-10.115,3.188-2.029-.688-2.971.588-3.883,2.156-.88,1.517-1.094,2.751.2,4.161.946,1.032,2.167,2.249,2.328,3.5.471,3.642,1.118,7.477-2.177,10.4-1.451,1.29-1.376,2.659-.344,4.261,1.486,2.356,1.616,2.469,4.045,2.177,1.458-.175,3.164-.66,4.371-.127,3.415,1.506,6.988,3.068,7.81,7.442a2.775,2.775,0,0,0,1.231,1.72,4.251,4.251,0,0,0,5.953-2.242c.688-1.878,1.417-3.566,3.353-4.746,2.951-1.8,5.847-3.116,9.327-1.981A3.167,3.167,0,0,0,70.1,62.812Z" transform="translate(-28.747 -22.759)" fill="#141433"/>
  <path id="Trazado_360" data-name="Trazado 360" d="M80.87,71.359A9.889,9.889,0,1,1,71.2,81.419,10.035,10.035,0,0,1,80.87,71.359Zm6.122,9.85a5.912,5.912,0,1,0-5.847,5.936A5.912,5.912,0,0,0,86.991,81.209Z" transform="translate(-56.598 -54.644)" fill="#141433"/>
</svg>
