<svg xmlns="http://www.w3.org/2000/svg" viewBox="0 0 135 135"><defs><style>.cls-1{fill:#b8b8b8;}.cls-2{fill:#fff;opacity:0.9;}</style></defs><title>social icons</title><g id="Graphic_Elements" data-name="Graphic Elements"><circle class="cls-1" cx="67.5" cy="67.5" r="67.5"/><path class="cls-2" d="M12.68,67.45,12,73.6l.68,6.15a.35.35,0,0,0,.69,0l1-6.15-1-6.15a.34.34,0,0,0-.35-.34.33.33,0,0,0-.34.34m4.1-3.75-1,9.9,1,9.9a.34.34,0,0,0,.34.35.34.34,0,0,0,.34-.35l1.37-9.9-1.37-9.9a.34.34,0,0,0-.34-.35h0l-.34.35m13-1.37L29.08,73.6l.68,12a.73.73,0,0,0,.68.69.74.74,0,0,0,.69-.69l1.36-12-1-11.27a.73.73,0,0,0-.69-.68c-.68,0-1,.34-1,.68m-8.54-.68-1,11.95,1,11.27a.73.73,0,0,0,.68.68,1.18,1.18,0,0,0,.35-.68l1-11.27-1-11.95a.74.74,0,0,0-.69-.69c0,.34-.34.34-.34.69m4.1-.35-1,12.3,1,11.61a.74.74,0,0,0,.68.69.75.75,0,0,0,.69-.69l1-11.61-1-12.3a.74.74,0,0,0-.69-.68c-.34,0-.34.34-.68.68m8.88-6.14-1,18.44,1,12a.73.73,0,0,0,.68.69c.69,0,1-.34,1-.69l1-12-1-18.44a.74.74,0,0,0-.69-.69c-.68,0-1,.35-1,.69m4.44-4.1L38,73.6l.68,12a.9.9,0,0,0,1,1,1.09,1.09,0,0,0,1-1l1-12-1-22.54a1,1,0,1,0-2,0m18.1-1L56.06,73.6l.68,11.27a1.37,1.37,0,1,0,2.73,0l.69-11.27-.69-23.91a1.46,1.46,0,0,0-1.36-1.36c-1,.34-1.37.68-1.37,1.7M43.08,49,42.4,73.6l.68,11.61a1,1,0,1,0,2.05,0l.68-11.61L45.13,49a.91.91,0,0,0-1-1,1.09,1.09,0,0,0-1,1M52,49,51.28,73.6,52,85.21a1.37,1.37,0,1,0,2.73,0l.69-11.61L54.69,49A1.37,1.37,0,1,0,52,49m-4.44-.68L46.84,73.6l.68,11.61a1,1,0,1,0,2,0l.68-11.61-.68-25.27a1,1,0,1,0-2,0m13.66-3.08L60.5,73.6l.68,11.27a1.37,1.37,0,1,0,2.73,0L64.6,73.6l-.69-28.35a1.37,1.37,0,0,0-2.73,0M66,42.86,65.28,73.6,66,84.87a1.37,1.37,0,1,0,2.74,0l.68-11.27L68.7,42.86a1.47,1.47,0,0,0-1.37-1.36H67c-.69,0-1,.68-1,1.36m5.47-3.07c-1,.34-1.37.68-1.37,1.71V84.87a2.27,2.27,0,0,0,1.37,1.71h37.91a13.66,13.66,0,0,0,0-27.32,12.48,12.48,0,0,0-5.12,1A23.86,23.86,0,0,0,80.31,38.42H78.6a26.33,26.33,0,0,0-7.17,1.37"/></g></svg>