<svg xmlns="http://www.w3.org/2000/svg" viewBox="0 0 135 135"><defs><style>.cls-1{fill:#b8b8b8;}.cls-2{fill:#fff;fill-rule:evenodd;}</style></defs><title>social icons</title><g id="Graphic_Elements" data-name="Graphic Elements"><circle class="cls-1" cx="67.5" cy="67.5" r="67.5"/><circle class="cls-1" cx="67.5" cy="67.5" r="48"/><path class="cls-2" d="M67.5,17.5a50,50,0,1,0,50,50A50,50,0,0,0,67.5,17.5Zm33,23a42.53,42.53,0,0,1,9.65,26.57c-1.41-.27-15.51-3.14-29.72-1.36-.32-.7-.6-1.46-.92-2.22-.87-2.06-1.84-4.17-2.82-6.18C92.45,51,99.6,41.74,100.53,40.55Zm-33-15.67A42.61,42.61,0,0,1,95.81,35.61c-.76,1.09-7.21,9.71-22.4,15.4A231,231,0,0,0,57.47,26,43.37,43.37,0,0,1,67.5,24.88Zm-18.17,4A270.23,270.23,0,0,1,65.17,53.56a160,160,0,0,1-39.48,5.21A42.89,42.89,0,0,1,49.33,28.89ZM24.77,67.55v-1.3a155.69,155.69,0,0,0,43.87-6.07C69.89,62.57,71,65,72.11,67.45l-1.68.48C48.41,75,36.7,94.45,35.72,96.08A42.6,42.6,0,0,1,24.77,67.55ZM67.5,110.23a42.39,42.39,0,0,1-26.19-9c.76-1.57,9.43-18.27,33.51-26.68.11,0,.16,0,.27-.11a176.38,176.38,0,0,1,9.11,32.38A42,42,0,0,1,67.5,110.23Zm23.81-7.32A184.25,184.25,0,0,0,83,72.49a62.26,62.26,0,0,1,26.57,1.84A42.3,42.3,0,0,1,91.31,102.91Z"/></g></svg>