<svg xmlns="http://www.w3.org/2000/svg" xmlns:xlink="http://www.w3.org/1999/xlink" viewBox="0 0 145 145"><defs><style>.cls-1{fill:#b8b8b8;}.cls-2{clip-path:url(#clip-path);}.cls-3{fill:#fff;}</style><clipPath id="clip-path"><circle class="cls-1" cx="72.5" cy="72.5" r="67.5"/></clipPath></defs><title>social icons</title><g id="Graphic_Elements" data-name="Graphic Elements"><circle class="cls-1" cx="72.5" cy="72.5" r="67.5"/><path class="cls-3" d="M72.5,37.66c11.35,0,12.69,0,17.17.25a23.4,23.4,0,0,1,7.9,1.46,14.11,14.11,0,0,1,8.06,8.06,23.4,23.4,0,0,1,1.46,7.9c.21,4.48.25,5.82.25,17.17s0,12.69-.25,17.17a23.4,23.4,0,0,1-1.46,7.9,14.11,14.11,0,0,1-8.06,8.06,23.4,23.4,0,0,1-7.9,1.46c-4.48.21-5.82.25-17.17.25s-12.69,0-17.17-.25a23.4,23.4,0,0,1-7.9-1.46,14.11,14.11,0,0,1-8.06-8.06,23.4,23.4,0,0,1-1.46-7.9c-.21-4.48-.25-5.82-.25-17.17s0-12.69.25-17.17a23.4,23.4,0,0,1,1.46-7.9,14.11,14.11,0,0,1,8.06-8.06,23.4,23.4,0,0,1,7.9-1.46c4.48-.21,5.82-.25,17.17-.25m0-7.66c-11.54,0-13,.05-17.52.26a31,31,0,0,0-10.32,2A21.7,21.7,0,0,0,32.23,44.66a31,31,0,0,0-2,10.32C30.05,59.51,30,61,30,72.5s.05,13,.26,17.52a31,31,0,0,0,2,10.32,21.7,21.7,0,0,0,12.43,12.43,31,31,0,0,0,10.32,2c4.53.21,6,.26,17.52.26s13,0,17.52-.26a31,31,0,0,0,10.32-2,21.7,21.7,0,0,0,12.43-12.43,31,31,0,0,0,2-10.32c.21-4.53.26-6,.26-17.52s0-13-.26-17.52a31,31,0,0,0-2-10.32,21.7,21.7,0,0,0-12.43-12.43,31,31,0,0,0-10.32-2C85.49,30.05,84,30,72.5,30Z"/><path class="cls-3" d="M72.5,50.68A21.82,21.82,0,1,0,94.32,72.5,21.82,21.82,0,0,0,72.5,50.68Zm0,36A14.17,14.17,0,1,1,86.67,72.5,14.18,14.18,0,0,1,72.5,86.67Z"/><circle class="cls-3" cx="95.19" cy="49.81" r="5.1"/></g></svg>