<svg xmlns="http://www.w3.org/2000/svg" viewBox="0 0 134.4 134.07"><defs><style>.cls-1{fill:#fff;}.cls-2{fill:#b8b8b8;}</style></defs><title>social icons</title><g id="Graphic_Elements" data-name="Graphic Elements"><circle class="cls-1" cx="67.2" cy="67.32" r="66.75"/><path class="cls-2" d="M134.4,70.83c-.24,2.08-.45,4.16-.73,6.23a63.11,63.11,0,0,1-9.25,25.42A67.63,67.63,0,0,1,103.27,124a66.46,66.46,0,0,1-14.53,6.89c-2.83.95-4.79-.52-4.81-3.5,0-5.86,0-11.73,0-17.59,0-3.57-.38-7.09-2.33-10.22-.57-.91-1.29-1.73-2-2.62,2.62-.49,5.25-.84,7.8-1.49,6.86-1.74,13-4.77,17.17-10.76,3.07-4.4,4.47-9.45,5.09-14.72a37.72,37.72,0,0,0-.24-12.27,24,24,0,0,0-5.39-10.93,2.15,2.15,0,0,1-.47-2.42c1.8-5.45,1-10.78-1-16a1.37,1.37,0,0,0-1-.63A11.57,11.57,0,0,0,94.91,29c-3.39,1.6-6.66,3.44-10,5.11a3,3,0,0,1-1.93.33,63.44,63.44,0,0,0-31.54,0,3,3,0,0,1-2-.4,47.88,47.88,0,0,0-13.67-6.17l-.26-.07c-3.08-.63-3.64-.28-4.52,2.7a22.93,22.93,0,0,0,0,14.44,1.65,1.65,0,0,1-.29,1.35c-5.54,6.29-6.86,13.76-6.16,21.8a38.54,38.54,0,0,0,3.73,14c3,6.09,8.12,9.81,14.31,12,3.88,1.38,8,2.09,12.07,3.11,0-.19.06,0,0,0A14.25,14.25,0,0,0,50.83,105a1.51,1.51,0,0,1-.62,1c-4.67,1.75-9.37,2.68-14-.14a14.55,14.55,0,0,1-4.87-5.23A14.22,14.22,0,0,0,23,93.89a12.2,12.2,0,0,0-4.23-.21c-1,0-1.28.77-.63,1.58a8.05,8.05,0,0,0,2,2c3.53,2,5.51,5.28,7.13,8.82,1,2.11,1.79,4.26,3.57,5.88a15.25,15.25,0,0,0,10,3.72c3.13.13,6.27,0,9.55,0a3.62,3.62,0,0,1,.06.61c0,3.54.1,7.09.12,10.63s-2,4.9-5.34,3.76c-17.06-5.92-29.58-17.14-37.94-33C1,85.82-1,73,.44,59.61a65,65,0,0,1,16.28-36.8A64.3,64.3,0,0,1,52.81,1.58c20.9-4.25,40,0,56.7,13.45a65.4,65.4,0,0,1,23.68,39.39c.46,2.35.64,4.76,1,7.14.06.47.17.93.25,1.4Z"/></g></svg>