<svg xmlns="http://www.w3.org/2000/svg" viewBox="0 0 135 135"><defs><style>.cls-1{fill:#b8b8b8;}.cls-2{fill:#fff;}</style></defs><title>social icons</title><g id="Graphic_Elements" data-name="Graphic Elements"><circle class="cls-1" cx="67.5" cy="67.5" r="67.5"/><path class="cls-2" d="M111.11,50.36q-.61,13.28-18.56,36.37Q74,110.85,61.15,110.85q-8,0-13.46-14.69L40.34,69.23q-4.08-14.69-8.76-14.69c-.69,0-3.07,1.44-7.15,4.29l-4.28-5.51Q26.9,47.4,33.43,41.48q9-7.77,13.49-8.18,10.62-1,13.07,14.52,2.65,16.77,3.68,20.86,3.08,13.91,6.75,13.91,2.85,0,8.58-9t6.12-13.74C85.67,54.63,83.62,52,79,52a17.07,17.07,0,0,0-6.74,1.49q6.7-22,25.63-21.35Q111.92,32.57,111.11,50.36Z"/></g></svg>