<svg xmlns="http://www.w3.org/2000/svg" viewBox="0 0 135 135"><defs><style>.cls-1,.cls-3{fill:#b8b8b8;}.cls-2{fill:#fff;}.cls-3{fill-rule:evenodd;}</style></defs><title>social icons</title><g id="Graphic_Elements" data-name="Graphic Elements"><circle class="cls-1" cx="67.5" cy="67.5" r="67.5"/><path class="cls-2" d="M75.63,48.31A26.77,26.77,0,0,1,48.81,75h0A26.77,26.77,0,0,1,22,48.31h0A26.77,26.77,0,0,1,48.81,21.58h0A26.77,26.77,0,0,1,75.63,48.31h0"/><path class="cls-2" d="M113,86.69A26.83,26.83,0,1,1,86.18,60,26.78,26.78,0,0,1,113,86.69h0"/><path class="cls-2" d="M110,67.7A42.4,42.4,0,0,1,67.5,110h0A42.4,42.4,0,0,1,25,67.7h0A42.4,42.4,0,0,1,67.5,25.37h0A42.4,42.4,0,0,1,110,67.7h0"/><path class="cls-3" d="M55.56,66.23a13.35,13.35,0,0,1-4.18-4.41,12.27,12.27,0,0,1-1.44-6.11,11,11,0,0,1,2.59-7.38,15.56,15.56,0,0,1,6.73-4.5,26.23,26.23,0,0,1,8.82-1.49,36.1,36.1,0,0,1,5.87.45A21.82,21.82,0,0,1,78,43.84a7.88,7.88,0,0,1,3.19,2,4.07,4.07,0,0,1,1,2.73,3.93,3.93,0,0,1-1,2.85,3.47,3.47,0,0,1-2.6,1.09,4.74,4.74,0,0,1-1.93-.44A34.32,34.32,0,0,0,72,50.43a16.5,16.5,0,0,0-4.43-.55A10,10,0,0,0,62,51.3a4.61,4.61,0,0,0-2.22,4.14A4.15,4.15,0,0,0,61,58.36a10.48,10.48,0,0,0,3.1,2.22c1.3.65,3.24,1.5,5.82,2.57a6,6,0,0,1,.83.33,41.83,41.83,0,0,1,7.2,3.7,14.61,14.61,0,0,1,4.44,4.55A12.07,12.07,0,0,1,84,78.05a12.76,12.76,0,0,1-2.22,7.62,13.22,13.22,0,0,1-6.2,4.6,26.16,26.16,0,0,1-9.32,1.52,29.31,29.31,0,0,1-12.7-2.41,6.83,6.83,0,0,1-2.61-2,4.52,4.52,0,0,1-.85-2.77,3.62,3.62,0,0,1,1.11-2.81,4.13,4.13,0,0,1,2.88-1,7.34,7.34,0,0,1,3.37.87c1.29.64,2.31,1.12,3.05,1.45a16.18,16.18,0,0,0,2.64.83,15.34,15.34,0,0,0,3.38.35,9,9,0,0,0,5.68-1.52,5,5,0,0,0,1.92-4.15,4.44,4.44,0,0,0-1.2-3A13,13,0,0,0,69.35,73Q67,71.75,62.78,70a40.87,40.87,0,0,1-7.22-3.75"/></g></svg>